<svg xmlns="http://www.w3.org/2000/svg" xmlns:xlink="http://www.w3.org/1999/xlink" width="2000" zoomAndPan="magnify" viewBox="0 0 1500 1499.999933" height="2000" preserveAspectRatio="xMidYMid meet" version="1.0"><defs><g/><clipPath id="d69faf99a1"><path d="M 262.140625 92.667969 L 393.648438 92.667969 L 393.648438 224.179688 L 262.140625 224.179688 Z M 262.140625 92.667969 " clip-rule="nonzero"/></clipPath><clipPath id="4d294450f8"><path d="M 327.894531 92.667969 C 291.582031 92.667969 262.140625 122.109375 262.140625 158.425781 C 262.140625 194.738281 291.582031 224.179688 327.894531 224.179688 C 364.210938 224.179688 393.648438 194.738281 393.648438 158.425781 C 393.648438 122.109375 364.210938 92.667969 327.894531 92.667969 Z M 327.894531 92.667969 " clip-rule="nonzero"/></clipPath><clipPath id="6711678df6"><path d="M 0.140625 0.667969 L 131.648438 0.667969 L 131.648438 132.179688 L 0.140625 132.179688 Z M 0.140625 0.667969 " clip-rule="nonzero"/></clipPath><clipPath id="c851b01f03"><path d="M 65.894531 0.667969 C 29.582031 0.667969 0.140625 30.109375 0.140625 66.425781 C 0.140625 102.738281 29.582031 132.179688 65.894531 132.179688 C 102.210938 132.179688 131.648438 102.738281 131.648438 66.425781 C 131.648438 30.109375 102.210938 0.667969 65.894531 0.667969 Z M 65.894531 0.667969 " clip-rule="nonzero"/></clipPath><clipPath id="efaa831132"><rect x="0" width="132" y="0" height="133"/></clipPath><clipPath id="04fa34b91f"><path d="M 0 199.671875 L 1500 199.671875 L 1500 454.441406 L 0 454.441406 Z M 0 199.671875 " clip-rule="nonzero"/></clipPath><clipPath id="b08022aa4f"><path d="M 0 0.671875 L 1500 0.671875 L 1500 255.441406 L 0 255.441406 Z M 0 0.671875 " clip-rule="nonzero"/></clipPath><clipPath id="eafc166b61"><rect x="0" width="1500" y="0" height="256"/></clipPath><clipPath id="6365eecfed"><path d="M 0 34 L 1500 34 L 1500 512.71875 L 0 512.71875 Z M 0 34 " clip-rule="nonzero"/></clipPath><linearGradient x1="5.880273" gradientTransform="matrix(1, 0, 0, 1, 0, -0.000000000000113687)" y1="22.870001" x2="903.038315" gradientUnits="userSpaceOnUse" y2="22.870001" id="38b58031ac"><stop stop-opacity="1" stop-color="rgb(14.425659%, 29.394531%, 67.643738%)" offset="0"/><stop stop-opacity="1" stop-color="rgb(15.078735%, 29.385376%, 67.288208%)" offset="0.00390625"/><stop stop-opacity="1" stop-color="rgb(15.731812%, 29.376221%, 66.934204%)" offset="0.0078125"/><stop stop-opacity="1" stop-color="rgb(16.384888%, 29.367065%, 66.578674%)" offset="0.0117188"/><stop stop-opacity="1" stop-color="rgb(17.037964%, 29.359436%, 66.22467%)" offset="0.015625"/><stop stop-opacity="1" stop-color="rgb(17.69104%, 29.350281%, 65.869141%)" offset="0.0195313"/><stop stop-opacity="1" stop-color="rgb(18.345642%, 29.341125%, 65.515137%)" offset="0.0234375"/><stop stop-opacity="1" stop-color="rgb(18.998718%, 29.33197%, 65.159607%)" offset="0.0273438"/><stop stop-opacity="1" stop-color="rgb(19.651794%, 29.324341%, 64.805603%)" offset="0.03125"/><stop stop-opacity="1" stop-color="rgb(20.304871%, 29.315186%, 64.450073%)" offset="0.0351562"/><stop stop-opacity="1" stop-color="rgb(20.957947%, 29.30603%, 64.096069%)" offset="0.0390625"/><stop stop-opacity="1" stop-color="rgb(21.611023%, 29.296875%, 63.742065%)" offset="0.0429688"/><stop stop-opacity="1" stop-color="rgb(22.265625%, 29.289246%, 63.388062%)" offset="0.046875"/><stop stop-opacity="1" stop-color="rgb(22.918701%, 29.28009%, 63.032532%)" offset="0.0507813"/><stop stop-opacity="1" stop-color="rgb(23.571777%, 29.270935%, 62.678528%)" offset="0.0546875"/><stop stop-opacity="1" stop-color="rgb(24.224854%, 29.26178%, 62.322998%)" offset="0.0585938"/><stop stop-opacity="1" stop-color="rgb(24.87793%, 29.252625%, 61.968994%)" offset="0.0625"/><stop stop-opacity="1" stop-color="rgb(25.531006%, 29.243469%, 61.613464%)" offset="0.0664063"/><stop stop-opacity="1" stop-color="rgb(26.184082%, 29.23584%, 61.25946%)" offset="0.0703125"/><stop stop-opacity="1" stop-color="rgb(26.837158%, 29.226685%, 60.903931%)" offset="0.0742188"/><stop stop-opacity="1" stop-color="rgb(27.49176%, 29.217529%, 60.549927%)" offset="0.078125"/><stop stop-opacity="1" stop-color="rgb(28.144836%, 29.208374%, 60.194397%)" offset="0.0820313"/><stop stop-opacity="1" stop-color="rgb(28.797913%, 29.200745%, 59.840393%)" offset="0.0859375"/><stop stop-opacity="1" stop-color="rgb(29.450989%, 29.191589%, 59.484863%)" offset="0.0898438"/><stop stop-opacity="1" stop-color="rgb(30.104065%, 29.182434%, 59.130859%)" offset="0.09375"/><stop stop-opacity="1" stop-color="rgb(30.757141%, 29.173279%, 58.77533%)" offset="0.0976563"/><stop stop-opacity="1" stop-color="rgb(31.411743%, 29.165649%, 58.421326%)" offset="0.101563"/><stop stop-opacity="1" stop-color="rgb(32.064819%, 29.156494%, 58.065796%)" offset="0.105469"/><stop stop-opacity="1" stop-color="rgb(32.717896%, 29.147339%, 57.711792%)" offset="0.109375"/><stop stop-opacity="1" stop-color="rgb(33.370972%, 29.138184%, 57.356262%)" offset="0.113281"/><stop stop-opacity="1" stop-color="rgb(34.024048%, 29.130554%, 57.002258%)" offset="0.117188"/><stop stop-opacity="1" stop-color="rgb(34.677124%, 29.121399%, 56.646729%)" offset="0.121094"/><stop stop-opacity="1" stop-color="rgb(35.3302%, 29.112244%, 56.292725%)" offset="0.125"/><stop stop-opacity="1" stop-color="rgb(35.983276%, 29.103088%, 55.937195%)" offset="0.128906"/><stop stop-opacity="1" stop-color="rgb(36.637878%, 29.093933%, 55.583191%)" offset="0.132813"/><stop stop-opacity="1" stop-color="rgb(37.290955%, 29.084778%, 55.227661%)" offset="0.136719"/><stop stop-opacity="1" stop-color="rgb(37.944031%, 29.077148%, 54.873657%)" offset="0.140625"/><stop stop-opacity="1" stop-color="rgb(38.597107%, 29.067993%, 54.518127%)" offset="0.144531"/><stop stop-opacity="1" stop-color="rgb(39.250183%, 29.058838%, 54.164124%)" offset="0.148438"/><stop stop-opacity="1" stop-color="rgb(39.903259%, 29.049683%, 53.808594%)" offset="0.152344"/><stop stop-opacity="1" stop-color="rgb(40.556335%, 29.042053%, 53.45459%)" offset="0.15625"/><stop stop-opacity="1" stop-color="rgb(41.209412%, 29.032898%, 53.09906%)" offset="0.160156"/><stop stop-opacity="1" stop-color="rgb(41.864014%, 29.023743%, 52.745056%)" offset="0.164063"/><stop stop-opacity="1" stop-color="rgb(42.51709%, 29.014587%, 52.389526%)" offset="0.167969"/><stop stop-opacity="1" stop-color="rgb(43.170166%, 29.006958%, 52.035522%)" offset="0.171875"/><stop stop-opacity="1" stop-color="rgb(43.823242%, 28.997803%, 51.679993%)" offset="0.175781"/><stop stop-opacity="1" stop-color="rgb(44.476318%, 28.988647%, 51.325989%)" offset="0.179688"/><stop stop-opacity="1" stop-color="rgb(45.129395%, 28.979492%, 50.971985%)" offset="0.183594"/><stop stop-opacity="1" stop-color="rgb(45.783997%, 28.971863%, 50.617981%)" offset="0.1875"/><stop stop-opacity="1" stop-color="rgb(46.437073%, 28.962708%, 50.262451%)" offset="0.191406"/><stop stop-opacity="1" stop-color="rgb(47.090149%, 28.953552%, 49.908447%)" offset="0.195312"/><stop stop-opacity="1" stop-color="rgb(47.743225%, 28.944397%, 49.552917%)" offset="0.199219"/><stop stop-opacity="1" stop-color="rgb(48.396301%, 28.935242%, 49.198914%)" offset="0.203125"/><stop stop-opacity="1" stop-color="rgb(49.049377%, 28.926086%, 48.843384%)" offset="0.207031"/><stop stop-opacity="1" stop-color="rgb(49.702454%, 28.918457%, 48.48938%)" offset="0.210938"/><stop stop-opacity="1" stop-color="rgb(50.35553%, 28.909302%, 48.13385%)" offset="0.214844"/><stop stop-opacity="1" stop-color="rgb(51.010132%, 28.900146%, 47.779846%)" offset="0.21875"/><stop stop-opacity="1" stop-color="rgb(51.663208%, 28.890991%, 47.424316%)" offset="0.222656"/><stop stop-opacity="1" stop-color="rgb(52.316284%, 28.883362%, 47.070312%)" offset="0.226562"/><stop stop-opacity="1" stop-color="rgb(52.96936%, 28.874207%, 46.714783%)" offset="0.230469"/><stop stop-opacity="1" stop-color="rgb(53.622437%, 28.865051%, 46.360779%)" offset="0.234375"/><stop stop-opacity="1" stop-color="rgb(54.275513%, 28.855896%, 46.005249%)" offset="0.238281"/><stop stop-opacity="1" stop-color="rgb(54.930115%, 28.848267%, 45.651245%)" offset="0.242188"/><stop stop-opacity="1" stop-color="rgb(55.583191%, 28.839111%, 45.295715%)" offset="0.246094"/><stop stop-opacity="1" stop-color="rgb(56.236267%, 28.829956%, 44.941711%)" offset="0.25"/><stop stop-opacity="1" stop-color="rgb(56.889343%, 28.820801%, 44.586182%)" offset="0.253906"/><stop stop-opacity="1" stop-color="rgb(57.542419%, 28.811646%, 44.232178%)" offset="0.257813"/><stop stop-opacity="1" stop-color="rgb(58.195496%, 28.80249%, 43.876648%)" offset="0.261719"/><stop stop-opacity="1" stop-color="rgb(58.848572%, 28.794861%, 43.522644%)" offset="0.265625"/><stop stop-opacity="1" stop-color="rgb(59.501648%, 28.785706%, 43.167114%)" offset="0.269531"/><stop stop-opacity="1" stop-color="rgb(60.15625%, 28.77655%, 42.81311%)" offset="0.273438"/><stop stop-opacity="1" stop-color="rgb(60.809326%, 28.767395%, 42.457581%)" offset="0.277344"/><stop stop-opacity="1" stop-color="rgb(61.462402%, 28.759766%, 42.103577%)" offset="0.28125"/><stop stop-opacity="1" stop-color="rgb(62.115479%, 28.75061%, 41.748047%)" offset="0.285156"/><stop stop-opacity="1" stop-color="rgb(62.768555%, 28.741455%, 41.394043%)" offset="0.289063"/><stop stop-opacity="1" stop-color="rgb(63.421631%, 28.7323%, 41.038513%)" offset="0.292969"/><stop stop-opacity="1" stop-color="rgb(64.076233%, 28.72467%, 40.684509%)" offset="0.296875"/><stop stop-opacity="1" stop-color="rgb(64.729309%, 28.715515%, 40.328979%)" offset="0.300781"/><stop stop-opacity="1" stop-color="rgb(65.382385%, 28.70636%, 39.974976%)" offset="0.304688"/><stop stop-opacity="1" stop-color="rgb(66.035461%, 28.697205%, 39.619446%)" offset="0.308594"/><stop stop-opacity="1" stop-color="rgb(66.688538%, 28.689575%, 39.265442%)" offset="0.3125"/><stop stop-opacity="1" stop-color="rgb(67.341614%, 28.68042%, 38.911438%)" offset="0.316406"/><stop stop-opacity="1" stop-color="rgb(67.99469%, 28.671265%, 38.557434%)" offset="0.320313"/><stop stop-opacity="1" stop-color="rgb(68.647766%, 28.662109%, 38.201904%)" offset="0.324219"/><stop stop-opacity="1" stop-color="rgb(69.302368%, 28.652954%, 37.8479%)" offset="0.328125"/><stop stop-opacity="1" stop-color="rgb(69.955444%, 28.643799%, 37.492371%)" offset="0.332031"/><stop stop-opacity="1" stop-color="rgb(70.608521%, 28.636169%, 37.138367%)" offset="0.335938"/><stop stop-opacity="1" stop-color="rgb(71.261597%, 28.627014%, 36.782837%)" offset="0.339844"/><stop stop-opacity="1" stop-color="rgb(71.914673%, 28.617859%, 36.428833%)" offset="0.34375"/><stop stop-opacity="1" stop-color="rgb(72.567749%, 28.608704%, 36.073303%)" offset="0.347656"/><stop stop-opacity="1" stop-color="rgb(73.222351%, 28.601074%, 35.719299%)" offset="0.351563"/><stop stop-opacity="1" stop-color="rgb(73.875427%, 28.591919%, 35.36377%)" offset="0.355469"/><stop stop-opacity="1" stop-color="rgb(74.528503%, 28.582764%, 35.009766%)" offset="0.359375"/><stop stop-opacity="1" stop-color="rgb(75.18158%, 28.573608%, 34.654236%)" offset="0.363281"/><stop stop-opacity="1" stop-color="rgb(75.834656%, 28.565979%, 34.300232%)" offset="0.367188"/><stop stop-opacity="1" stop-color="rgb(76.487732%, 28.556824%, 33.944702%)" offset="0.371094"/><stop stop-opacity="1" stop-color="rgb(77.140808%, 28.547668%, 33.590698%)" offset="0.375"/><stop stop-opacity="1" stop-color="rgb(77.793884%, 28.538513%, 33.235168%)" offset="0.378906"/><stop stop-opacity="1" stop-color="rgb(78.448486%, 28.530884%, 32.881165%)" offset="0.382813"/><stop stop-opacity="1" stop-color="rgb(79.101562%, 28.521729%, 32.525635%)" offset="0.386719"/><stop stop-opacity="1" stop-color="rgb(79.754639%, 28.512573%, 32.171631%)" offset="0.390625"/><stop stop-opacity="1" stop-color="rgb(80.407715%, 28.503418%, 31.816101%)" offset="0.394531"/><stop stop-opacity="1" stop-color="rgb(81.060791%, 28.494263%, 31.462097%)" offset="0.398438"/><stop stop-opacity="1" stop-color="rgb(81.713867%, 28.485107%, 31.106567%)" offset="0.402344"/><stop stop-opacity="1" stop-color="rgb(82.368469%, 28.477478%, 30.752563%)" offset="0.40625"/><stop stop-opacity="1" stop-color="rgb(83.021545%, 28.468323%, 30.397034%)" offset="0.410156"/><stop stop-opacity="1" stop-color="rgb(83.674622%, 28.459167%, 30.04303%)" offset="0.414063"/><stop stop-opacity="1" stop-color="rgb(84.327698%, 28.450012%, 29.6875%)" offset="0.417969"/><stop stop-opacity="1" stop-color="rgb(84.980774%, 28.442383%, 29.333496%)" offset="0.421875"/><stop stop-opacity="1" stop-color="rgb(85.63385%, 28.433228%, 28.977966%)" offset="0.425781"/><stop stop-opacity="1" stop-color="rgb(86.286926%, 28.424072%, 28.623962%)" offset="0.429688"/><stop stop-opacity="1" stop-color="rgb(86.940002%, 28.414917%, 28.268433%)" offset="0.433594"/><stop stop-opacity="1" stop-color="rgb(87.594604%, 28.407288%, 27.914429%)" offset="0.4375"/><stop stop-opacity="1" stop-color="rgb(88.247681%, 28.398132%, 27.558899%)" offset="0.441406"/><stop stop-opacity="1" stop-color="rgb(88.900757%, 28.388977%, 27.204895%)" offset="0.445313"/><stop stop-opacity="1" stop-color="rgb(89.553833%, 28.379822%, 26.849365%)" offset="0.449219"/><stop stop-opacity="1" stop-color="rgb(90.206909%, 28.370667%, 26.495361%)" offset="0.453125"/><stop stop-opacity="1" stop-color="rgb(90.859985%, 28.361511%, 26.141357%)" offset="0.457031"/><stop stop-opacity="1" stop-color="rgb(91.514587%, 28.353882%, 25.787354%)" offset="0.460938"/><stop stop-opacity="1" stop-color="rgb(92.167664%, 28.344727%, 25.431824%)" offset="0.464844"/><stop stop-opacity="1" stop-color="rgb(92.82074%, 28.335571%, 25.07782%)" offset="0.46875"/><stop stop-opacity="1" stop-color="rgb(93.473816%, 28.326416%, 24.72229%)" offset="0.472656"/><stop stop-opacity="1" stop-color="rgb(94.126892%, 28.318787%, 24.368286%)" offset="0.476563"/><stop stop-opacity="1" stop-color="rgb(94.779968%, 28.309631%, 24.012756%)" offset="0.480469"/><stop stop-opacity="1" stop-color="rgb(95.433044%, 28.300476%, 23.658752%)" offset="0.484375"/><stop stop-opacity="1" stop-color="rgb(96.086121%, 28.291321%, 23.303223%)" offset="0.488281"/><stop stop-opacity="1" stop-color="rgb(96.740723%, 28.283691%, 22.949219%)" offset="0.492188"/><stop stop-opacity="1" stop-color="rgb(97.393799%, 28.274536%, 22.593689%)" offset="0.496094"/><stop stop-opacity="1" stop-color="rgb(98.046875%, 28.265381%, 22.239685%)" offset="0.5"/><stop stop-opacity="1" stop-color="rgb(98.699951%, 28.256226%, 21.884155%)" offset="0.503906"/><stop stop-opacity="1" stop-color="rgb(99.353027%, 28.248596%, 21.530151%)" offset="0.507813"/><stop stop-opacity="1" stop-color="rgb(99.676514%, 28.495789%, 21.354675%)" offset="0.511719"/><stop stop-opacity="1" stop-color="rgb(100%, 28.744507%, 21.179199%)" offset="0.515625"/><stop stop-opacity="1" stop-color="rgb(100%, 29.243469%, 21.179199%)" offset="0.519531"/><stop stop-opacity="1" stop-color="rgb(100%, 29.743958%, 21.179199%)" offset="0.523438"/><stop stop-opacity="1" stop-color="rgb(100%, 30.24292%, 21.179199%)" offset="0.527344"/><stop stop-opacity="1" stop-color="rgb(100%, 30.741882%, 21.179199%)" offset="0.53125"/><stop stop-opacity="1" stop-color="rgb(100%, 31.240845%, 21.179199%)" offset="0.535156"/><stop stop-opacity="1" stop-color="rgb(100%, 31.741333%, 21.179199%)" offset="0.539063"/><stop stop-opacity="1" stop-color="rgb(100%, 32.240295%, 21.179199%)" offset="0.542969"/><stop stop-opacity="1" stop-color="rgb(100%, 32.740784%, 21.179199%)" offset="0.546875"/><stop stop-opacity="1" stop-color="rgb(100%, 33.239746%, 21.179199%)" offset="0.550781"/><stop stop-opacity="1" stop-color="rgb(100%, 33.740234%, 21.179199%)" offset="0.554688"/><stop stop-opacity="1" stop-color="rgb(100%, 34.239197%, 21.179199%)" offset="0.558594"/><stop stop-opacity="1" stop-color="rgb(100%, 34.738159%, 21.179199%)" offset="0.5625"/><stop stop-opacity="1" stop-color="rgb(100%, 35.237122%, 21.179199%)" offset="0.566406"/><stop stop-opacity="1" stop-color="rgb(100%, 35.73761%, 21.179199%)" offset="0.570313"/><stop stop-opacity="1" stop-color="rgb(100%, 36.236572%, 21.179199%)" offset="0.574219"/><stop stop-opacity="1" stop-color="rgb(100%, 36.737061%, 21.179199%)" offset="0.578125"/><stop stop-opacity="1" stop-color="rgb(100%, 37.236023%, 21.179199%)" offset="0.582031"/><stop stop-opacity="1" stop-color="rgb(100%, 37.736511%, 21.179199%)" offset="0.585938"/><stop stop-opacity="1" stop-color="rgb(100%, 38.235474%, 21.179199%)" offset="0.589844"/><stop stop-opacity="1" stop-color="rgb(100%, 38.734436%, 21.179199%)" offset="0.59375"/><stop stop-opacity="1" stop-color="rgb(100%, 39.233398%, 21.179199%)" offset="0.597656"/><stop stop-opacity="1" stop-color="rgb(100%, 39.733887%, 21.179199%)" offset="0.601563"/><stop stop-opacity="1" stop-color="rgb(100%, 40.232849%, 21.179199%)" offset="0.605469"/><stop stop-opacity="1" stop-color="rgb(100%, 40.733337%, 21.179199%)" offset="0.609375"/><stop stop-opacity="1" stop-color="rgb(100%, 41.2323%, 21.179199%)" offset="0.613281"/><stop stop-opacity="1" stop-color="rgb(100%, 41.732788%, 21.179199%)" offset="0.617188"/><stop stop-opacity="1" stop-color="rgb(100%, 42.23175%, 21.179199%)" offset="0.621094"/><stop stop-opacity="1" stop-color="rgb(100%, 42.730713%, 21.179199%)" offset="0.625"/><stop stop-opacity="1" stop-color="rgb(100%, 43.229675%, 21.179199%)" offset="0.628906"/><stop stop-opacity="1" stop-color="rgb(100%, 43.730164%, 21.179199%)" offset="0.632813"/><stop stop-opacity="1" stop-color="rgb(100%, 44.229126%, 21.179199%)" offset="0.636719"/><stop stop-opacity="1" stop-color="rgb(100%, 44.729614%, 21.179199%)" offset="0.640625"/><stop stop-opacity="1" stop-color="rgb(100%, 45.228577%, 21.179199%)" offset="0.644531"/><stop stop-opacity="1" stop-color="rgb(100%, 45.727539%, 21.179199%)" offset="0.648438"/><stop stop-opacity="1" stop-color="rgb(100%, 46.226501%, 21.179199%)" offset="0.652344"/><stop stop-opacity="1" stop-color="rgb(100%, 46.72699%, 21.179199%)" offset="0.65625"/><stop stop-opacity="1" stop-color="rgb(100%, 47.225952%, 21.179199%)" offset="0.660156"/><stop stop-opacity="1" stop-color="rgb(100%, 47.72644%, 21.179199%)" offset="0.664063"/><stop stop-opacity="1" stop-color="rgb(100%, 48.225403%, 21.179199%)" offset="0.667969"/><stop stop-opacity="1" stop-color="rgb(100%, 48.725891%, 21.179199%)" offset="0.671875"/><stop stop-opacity="1" stop-color="rgb(100%, 49.224854%, 21.179199%)" offset="0.675781"/><stop stop-opacity="1" stop-color="rgb(100%, 49.723816%, 21.179199%)" offset="0.679688"/><stop stop-opacity="1" stop-color="rgb(100%, 50.222778%, 21.179199%)" offset="0.683594"/><stop stop-opacity="1" stop-color="rgb(100%, 50.723267%, 21.179199%)" offset="0.6875"/><stop stop-opacity="1" stop-color="rgb(100%, 51.222229%, 21.179199%)" offset="0.691406"/><stop stop-opacity="1" stop-color="rgb(100%, 51.722717%, 21.179199%)" offset="0.695313"/><stop stop-opacity="1" stop-color="rgb(100%, 52.22168%, 21.179199%)" offset="0.699219"/><stop stop-opacity="1" stop-color="rgb(100%, 52.722168%, 21.179199%)" offset="0.703125"/><stop stop-opacity="1" stop-color="rgb(100%, 53.22113%, 21.179199%)" offset="0.707031"/><stop stop-opacity="1" stop-color="rgb(100%, 53.720093%, 21.179199%)" offset="0.710938"/><stop stop-opacity="1" stop-color="rgb(100%, 54.219055%, 21.179199%)" offset="0.714844"/><stop stop-opacity="1" stop-color="rgb(100%, 54.719543%, 21.179199%)" offset="0.71875"/><stop stop-opacity="1" stop-color="rgb(100%, 55.218506%, 21.179199%)" offset="0.722656"/><stop stop-opacity="1" stop-color="rgb(100%, 55.718994%, 21.179199%)" offset="0.726563"/><stop stop-opacity="1" stop-color="rgb(100%, 56.217957%, 21.179199%)" offset="0.730469"/><stop stop-opacity="1" stop-color="rgb(100%, 56.718445%, 21.179199%)" offset="0.734375"/><stop stop-opacity="1" stop-color="rgb(100%, 57.217407%, 21.179199%)" offset="0.738281"/><stop stop-opacity="1" stop-color="rgb(100%, 57.71637%, 21.179199%)" offset="0.742188"/><stop stop-opacity="1" stop-color="rgb(100%, 58.215332%, 21.179199%)" offset="0.746094"/><stop stop-opacity="1" stop-color="rgb(100%, 58.71582%, 21.179199%)" offset="0.75"/><stop stop-opacity="1" stop-color="rgb(100%, 59.214783%, 21.179199%)" offset="0.753906"/><stop stop-opacity="1" stop-color="rgb(100%, 59.715271%, 21.179199%)" offset="0.757813"/><stop stop-opacity="1" stop-color="rgb(100%, 60.214233%, 21.179199%)" offset="0.761719"/><stop stop-opacity="1" stop-color="rgb(100%, 60.713196%, 21.179199%)" offset="0.765625"/><stop stop-opacity="1" stop-color="rgb(100%, 61.212158%, 21.179199%)" offset="0.769531"/><stop stop-opacity="1" stop-color="rgb(100%, 61.712646%, 21.179199%)" offset="0.773438"/><stop stop-opacity="1" stop-color="rgb(100%, 62.211609%, 21.179199%)" offset="0.777344"/><stop stop-opacity="1" stop-color="rgb(100%, 62.712097%, 21.179199%)" offset="0.78125"/><stop stop-opacity="1" stop-color="rgb(100%, 63.21106%, 21.179199%)" offset="0.785156"/><stop stop-opacity="1" stop-color="rgb(100%, 63.711548%, 21.179199%)" offset="0.789062"/><stop stop-opacity="1" stop-color="rgb(100%, 64.21051%, 21.179199%)" offset="0.792969"/><stop stop-opacity="1" stop-color="rgb(100%, 64.709473%, 21.179199%)" offset="0.796875"/><stop stop-opacity="1" stop-color="rgb(100%, 65.208435%, 21.179199%)" offset="0.800781"/><stop stop-opacity="1" stop-color="rgb(100%, 65.708923%, 21.179199%)" offset="0.804688"/><stop stop-opacity="1" stop-color="rgb(100%, 66.207886%, 21.179199%)" offset="0.808594"/><stop stop-opacity="1" stop-color="rgb(100%, 66.708374%, 21.179199%)" offset="0.8125"/><stop stop-opacity="1" stop-color="rgb(100%, 67.207336%, 21.179199%)" offset="0.816406"/><stop stop-opacity="1" stop-color="rgb(100%, 67.707825%, 21.179199%)" offset="0.820312"/><stop stop-opacity="1" stop-color="rgb(100%, 68.206787%, 21.179199%)" offset="0.824219"/><stop stop-opacity="1" stop-color="rgb(100%, 68.70575%, 21.179199%)" offset="0.828125"/><stop stop-opacity="1" stop-color="rgb(100%, 69.204712%, 21.179199%)" offset="0.832031"/><stop stop-opacity="1" stop-color="rgb(100%, 69.7052%, 21.179199%)" offset="0.835938"/><stop stop-opacity="1" stop-color="rgb(100%, 70.204163%, 21.179199%)" offset="0.839844"/><stop stop-opacity="1" stop-color="rgb(100%, 70.704651%, 21.179199%)" offset="0.84375"/><stop stop-opacity="1" stop-color="rgb(100%, 71.203613%, 21.179199%)" offset="0.847656"/><stop stop-opacity="1" stop-color="rgb(100%, 71.704102%, 21.179199%)" offset="0.851562"/><stop stop-opacity="1" stop-color="rgb(100%, 72.203064%, 21.179199%)" offset="0.855469"/><stop stop-opacity="1" stop-color="rgb(100%, 72.702026%, 21.179199%)" offset="0.859375"/><stop stop-opacity="1" stop-color="rgb(100%, 73.200989%, 21.179199%)" offset="0.863281"/><stop stop-opacity="1" stop-color="rgb(100%, 73.701477%, 21.179199%)" offset="0.867188"/><stop stop-opacity="1" stop-color="rgb(100%, 74.200439%, 21.179199%)" offset="0.871094"/><stop stop-opacity="1" stop-color="rgb(100%, 74.700928%, 21.179199%)" offset="0.875"/><stop stop-opacity="1" stop-color="rgb(100%, 75.19989%, 21.179199%)" offset="0.878906"/><stop stop-opacity="1" stop-color="rgb(100%, 75.698853%, 21.179199%)" offset="0.882812"/><stop stop-opacity="1" stop-color="rgb(100%, 76.197815%, 21.179199%)" offset="0.886719"/><stop stop-opacity="1" stop-color="rgb(100%, 76.698303%, 21.179199%)" offset="0.890625"/><stop stop-opacity="1" stop-color="rgb(100%, 77.197266%, 21.179199%)" offset="0.894531"/><stop stop-opacity="1" stop-color="rgb(100%, 77.697754%, 21.179199%)" offset="0.898438"/><stop stop-opacity="1" stop-color="rgb(100%, 78.196716%, 21.179199%)" offset="0.902344"/><stop stop-opacity="1" stop-color="rgb(100%, 78.697205%, 21.179199%)" offset="0.90625"/><stop stop-opacity="1" stop-color="rgb(100%, 79.196167%, 21.179199%)" offset="0.910156"/><stop stop-opacity="1" stop-color="rgb(100%, 79.695129%, 21.179199%)" offset="0.914062"/><stop stop-opacity="1" stop-color="rgb(100%, 80.194092%, 21.179199%)" offset="0.917969"/><stop stop-opacity="1" stop-color="rgb(100%, 80.69458%, 21.179199%)" offset="0.921875"/><stop stop-opacity="1" stop-color="rgb(100%, 81.193542%, 21.179199%)" offset="0.925781"/><stop stop-opacity="1" stop-color="rgb(100%, 81.694031%, 21.179199%)" offset="0.929688"/><stop stop-opacity="1" stop-color="rgb(100%, 82.192993%, 21.179199%)" offset="0.933594"/><stop stop-opacity="1" stop-color="rgb(100%, 82.693481%, 21.179199%)" offset="0.9375"/><stop stop-opacity="1" stop-color="rgb(100%, 83.192444%, 21.179199%)" offset="0.941406"/><stop stop-opacity="1" stop-color="rgb(100%, 83.691406%, 21.179199%)" offset="0.945312"/><stop stop-opacity="1" stop-color="rgb(100%, 84.190369%, 21.179199%)" offset="0.949219"/><stop stop-opacity="1" stop-color="rgb(100%, 84.690857%, 21.179199%)" offset="0.953125"/><stop stop-opacity="1" stop-color="rgb(100%, 85.189819%, 21.179199%)" offset="0.957031"/><stop stop-opacity="1" stop-color="rgb(100%, 85.690308%, 21.179199%)" offset="0.960938"/><stop stop-opacity="1" stop-color="rgb(100%, 86.18927%, 21.179199%)" offset="0.964844"/><stop stop-opacity="1" stop-color="rgb(100%, 86.689758%, 21.179199%)" offset="0.96875"/><stop stop-opacity="1" stop-color="rgb(100%, 87.188721%, 21.179199%)" offset="0.972656"/><stop stop-opacity="1" stop-color="rgb(100%, 87.687683%, 21.179199%)" offset="0.976562"/><stop stop-opacity="1" stop-color="rgb(100%, 88.186646%, 21.179199%)" offset="0.980469"/><stop stop-opacity="1" stop-color="rgb(100%, 88.687134%, 21.179199%)" offset="0.984375"/><stop stop-opacity="1" stop-color="rgb(100%, 89.186096%, 21.179199%)" offset="0.988281"/><stop stop-opacity="1" stop-color="rgb(100%, 89.686584%, 21.179199%)" offset="0.992188"/><stop stop-opacity="1" stop-color="rgb(100%, 90.185547%, 21.179199%)" offset="0.996094"/><stop stop-opacity="1" stop-color="rgb(100%, 90.686035%, 21.179199%)" offset="1"/></linearGradient><clipPath id="4259d83586"><path d="M 966.761719 163.785156 L 1098.269531 163.785156 L 1098.269531 295.292969 L 966.761719 295.292969 Z M 966.761719 163.785156 " clip-rule="nonzero"/></clipPath><clipPath id="d1aac01c15"><path d="M 1032.515625 163.785156 C 996.199219 163.785156 966.761719 193.222656 966.761719 229.539062 C 966.761719 265.855469 996.199219 295.292969 1032.515625 295.292969 C 1068.832031 295.292969 1098.269531 265.855469 1098.269531 229.539062 C 1098.269531 193.222656 1068.832031 163.785156 1032.515625 163.785156 Z M 1032.515625 163.785156 " clip-rule="nonzero"/></clipPath><clipPath id="b249463023"><path d="M 0.761719 0.785156 L 132.269531 0.785156 L 132.269531 132.292969 L 0.761719 132.292969 Z M 0.761719 0.785156 " clip-rule="nonzero"/></clipPath><clipPath id="1d58ea522e"><path d="M 66.515625 0.785156 C 30.199219 0.785156 0.761719 30.222656 0.761719 66.539062 C 0.761719 102.855469 30.199219 132.292969 66.515625 132.292969 C 102.832031 132.292969 132.269531 102.855469 132.269531 66.539062 C 132.269531 30.222656 102.832031 0.785156 66.515625 0.785156 Z M 66.515625 0.785156 " clip-rule="nonzero"/></clipPath><clipPath id="e6e96fb503"><rect x="0" width="133" y="0" height="133"/></clipPath><clipPath id="e724871fef"><path d="M 535.660156 177.84375 L 667.171875 177.84375 L 667.171875 309.351562 L 535.660156 309.351562 Z M 535.660156 177.84375 " clip-rule="nonzero"/></clipPath><clipPath id="a35ad5da0d"><path d="M 601.414062 177.84375 C 565.101562 177.84375 535.660156 207.28125 535.660156 243.597656 C 535.660156 279.914062 565.101562 309.351562 601.414062 309.351562 C 637.730469 309.351562 667.171875 279.914062 667.171875 243.597656 C 667.171875 207.28125 637.730469 177.84375 601.414062 177.84375 Z M 601.414062 177.84375 " clip-rule="nonzero"/></clipPath><clipPath id="854f33134b"><path d="M 0.660156 0.84375 L 132.171875 0.84375 L 132.171875 132.351562 L 0.660156 132.351562 Z M 0.660156 0.84375 " clip-rule="nonzero"/></clipPath><clipPath id="29a7ae10de"><path d="M 66.414062 0.84375 C 30.101562 0.84375 0.660156 30.28125 0.660156 66.597656 C 0.660156 102.914062 30.101562 132.351562 66.414062 132.351562 C 102.730469 132.351562 132.171875 102.914062 132.171875 66.597656 C 132.171875 30.28125 102.730469 0.84375 66.414062 0.84375 Z M 66.414062 0.84375 " clip-rule="nonzero"/></clipPath><clipPath id="b24457f114"><rect x="0" width="133" y="0" height="133"/></clipPath><clipPath id="06fd8a967a"><path d="M 767.511719 177.84375 L 899.019531 177.84375 L 899.019531 309.351562 L 767.511719 309.351562 Z M 767.511719 177.84375 " clip-rule="nonzero"/></clipPath><clipPath id="20f2d2d773"><path d="M 833.265625 177.84375 C 796.949219 177.84375 767.511719 207.28125 767.511719 243.597656 C 767.511719 279.914062 796.949219 309.351562 833.265625 309.351562 C 869.582031 309.351562 899.019531 279.914062 899.019531 243.597656 C 899.019531 207.28125 869.582031 177.84375 833.265625 177.84375 Z M 833.265625 177.84375 " clip-rule="nonzero"/></clipPath><clipPath id="919ce1c52f"><path d="M 0.511719 0.84375 L 132.019531 0.84375 L 132.019531 132.351562 L 0.511719 132.351562 Z M 0.511719 0.84375 " clip-rule="nonzero"/></clipPath><clipPath id="423d242534"><path d="M 66.265625 0.84375 C 29.949219 0.84375 0.511719 30.28125 0.511719 66.597656 C 0.511719 102.914062 29.949219 132.351562 66.265625 132.351562 C 102.582031 132.351562 132.019531 102.914062 132.019531 66.597656 C 132.019531 30.28125 102.582031 0.84375 66.265625 0.84375 Z M 66.265625 0.84375 " clip-rule="nonzero"/></clipPath><clipPath id="b3fb225529"><rect x="0" width="133" y="0" height="133"/></clipPath><clipPath id="89cf6b5aad"><path d="M 1431 345 L 1500 345 L 1500 455 L 1431 455 Z M 1431 345 " clip-rule="nonzero"/></clipPath><clipPath id="2a7c252605"><path d="M 1451.582031 333.871094 L 1563.023438 357.109375 L 1542.71875 454.476562 L 1431.277344 431.238281 Z M 1451.582031 333.871094 " clip-rule="nonzero"/></clipPath><clipPath id="4da8367b51"><path d="M 1507.21875 345.472656 L 1542.554688 454.441406 L 1431.277344 431.238281 Z M 1507.21875 345.472656 " clip-rule="nonzero"/></clipPath><clipPath id="4150abc1a3"><path d="M 0.121094 0.441406 L 69 0.441406 L 69 109.640625 L 0.121094 109.640625 Z M 0.121094 0.441406 " clip-rule="nonzero"/></clipPath><clipPath id="f18d239cbb"><path d="M 20.582031 -11.128906 L 132.023438 12.109375 L 111.71875 109.476562 L 0.277344 86.238281 Z M 20.582031 -11.128906 " clip-rule="nonzero"/></clipPath><clipPath id="30e526aaec"><path d="M 76.21875 0.472656 L 111.554688 109.441406 L 0.277344 86.238281 Z M 76.21875 0.472656 " clip-rule="nonzero"/></clipPath><clipPath id="f2f6a93d0b"><rect x="0" width="69" y="0" height="110"/></clipPath><clipPath id="18e9a0aed1"><rect x="0" width="232" y="0" height="426"/></clipPath><clipPath id="cade6a9c8e"><path d="M 1480 354 L 1500 354 L 1500 431 L 1480 431 Z M 1480 354 " clip-rule="nonzero"/></clipPath><clipPath id="179e4aadc1"><path d="M 1513.453125 335.542969 L 1578.785156 373.398438 L 1545.710938 430.480469 L 1480.378906 392.625 Z M 1513.453125 335.542969 " clip-rule="nonzero"/></clipPath><clipPath id="b2c0dcb904"><path d="M 1546.074219 354.441406 L 1545.617188 430.421875 L 1480.378906 392.625 Z M 1546.074219 354.441406 " clip-rule="nonzero"/></clipPath><clipPath id="3814bff477"><path d="M 0.320312 0.320312 L 20 0.320312 L 20 76.640625 L 0.320312 76.640625 Z M 0.320312 0.320312 " clip-rule="nonzero"/></clipPath><clipPath id="d4cdc8e202"><path d="M 33.453125 -18.457031 L 98.785156 19.398438 L 65.710938 76.480469 L 0.378906 38.625 Z M 33.453125 -18.457031 " clip-rule="nonzero"/></clipPath><clipPath id="951f91339c"><path d="M 66.074219 0.441406 L 65.617188 76.421875 L 0.378906 38.625 Z M 66.074219 0.441406 " clip-rule="nonzero"/></clipPath><clipPath id="fb1046c61e"><rect x="0" width="20" y="0" height="77"/></clipPath><clipPath id="76ba9173b4"><path d="M 1474 341 L 1500 341 L 1500 418 L 1474 418 Z M 1474 341 " clip-rule="nonzero"/></clipPath><clipPath id="faa5dbbee7"><path d="M 1505.359375 324.074219 L 1572.222656 359.152344 L 1541.574219 417.570312 L 1474.710938 382.496094 Z M 1505.359375 324.074219 " clip-rule="nonzero"/></clipPath><clipPath id="bff5ca9627"><path d="M 1538.742188 341.585938 L 1541.476562 417.519531 L 1474.710938 382.496094 Z M 1538.742188 341.585938 " clip-rule="nonzero"/></clipPath><clipPath id="ef04003d9a"><path d="M 0.558594 0.359375 L 26 0.359375 L 26 76.679688 L 0.558594 76.679688 Z M 0.558594 0.359375 " clip-rule="nonzero"/></clipPath><clipPath id="23c040cc6e"><path d="M 31.359375 -16.925781 L 98.222656 18.152344 L 67.574219 76.570312 L 0.710938 41.496094 Z M 31.359375 -16.925781 " clip-rule="nonzero"/></clipPath><clipPath id="41b43a7d5d"><path d="M 64.742188 0.585938 L 67.476562 76.519531 L 0.710938 41.496094 Z M 64.742188 0.585938 " clip-rule="nonzero"/></clipPath><clipPath id="b4fa162af1"><rect x="0" width="26" y="0" height="77"/></clipPath><clipPath id="43b8143bbc"><path d="M 1207.644531 188.71875 L 1268.203125 188.71875 L 1268.203125 249.277344 L 1207.644531 249.277344 Z M 1207.644531 188.71875 " clip-rule="nonzero"/></clipPath><clipPath id="473ddc47d2"><path d="M 1237.921875 188.71875 C 1221.199219 188.71875 1207.644531 202.273438 1207.644531 219 C 1207.644531 235.722656 1221.199219 249.277344 1237.921875 249.277344 C 1254.644531 249.277344 1268.203125 235.722656 1268.203125 219 C 1268.203125 202.273438 1254.644531 188.71875 1237.921875 188.71875 Z M 1237.921875 188.71875 " clip-rule="nonzero"/></clipPath><clipPath id="e19d91d990"><path d="M 0.644531 0.71875 L 61.203125 0.71875 L 61.203125 61.277344 L 0.644531 61.277344 Z M 0.644531 0.71875 " clip-rule="nonzero"/></clipPath><clipPath id="f66b4a016d"><path d="M 30.921875 0.71875 C 14.199219 0.71875 0.644531 14.273438 0.644531 31 C 0.644531 47.722656 14.199219 61.277344 30.921875 61.277344 C 47.644531 61.277344 61.203125 47.722656 61.203125 31 C 61.203125 14.273438 47.644531 0.71875 30.921875 0.71875 Z M 30.921875 0.71875 " clip-rule="nonzero"/></clipPath><clipPath id="29ef5dd8bc"><rect x="0" width="62" y="0" height="62"/></clipPath><clipPath id="7d199a15d5"><path d="M 401.625 170.308594 L 438.445312 170.308594 L 438.445312 207.128906 L 401.625 207.128906 Z M 401.625 170.308594 " clip-rule="nonzero"/></clipPath><clipPath id="0caf4f9280"><path d="M 420.035156 170.308594 C 409.867188 170.308594 401.625 178.550781 401.625 188.71875 C 401.625 198.886719 409.867188 207.128906 420.035156 207.128906 C 430.203125 207.128906 438.445312 198.886719 438.445312 188.71875 C 438.445312 178.550781 430.203125 170.308594 420.035156 170.308594 Z M 420.035156 170.308594 " clip-rule="nonzero"/></clipPath><clipPath id="f851338a2c"><path d="M 0.625 0.308594 L 37.445312 0.308594 L 37.445312 37.128906 L 0.625 37.128906 Z M 0.625 0.308594 " clip-rule="nonzero"/></clipPath><clipPath id="1f4b904bd9"><path d="M 19.035156 0.308594 C 8.867188 0.308594 0.625 8.550781 0.625 18.71875 C 0.625 28.886719 8.867188 37.128906 19.035156 37.128906 C 29.203125 37.128906 37.445312 28.886719 37.445312 18.71875 C 37.445312 8.550781 29.203125 0.308594 19.035156 0.308594 Z M 19.035156 0.308594 " clip-rule="nonzero"/></clipPath><clipPath id="ecbc717ce9"><rect x="0" width="38" y="0" height="38"/></clipPath><clipPath id="17d0fa5ed5"><path d="M 420.035156 141.1875 L 438.445312 141.1875 L 438.445312 159.597656 L 420.035156 159.597656 Z M 420.035156 141.1875 " clip-rule="nonzero"/></clipPath><clipPath id="f1163bc74c"><path d="M 429.242188 141.1875 C 424.15625 141.1875 420.035156 145.308594 420.035156 150.390625 C 420.035156 155.476562 424.15625 159.597656 429.242188 159.597656 C 434.324219 159.597656 438.445312 155.476562 438.445312 150.390625 C 438.445312 145.308594 434.324219 141.1875 429.242188 141.1875 Z M 429.242188 141.1875 " clip-rule="nonzero"/></clipPath><clipPath id="780f215db1"><path d="M 0.0351562 0.1875 L 18.445312 0.1875 L 18.445312 18.597656 L 0.0351562 18.597656 Z M 0.0351562 0.1875 " clip-rule="nonzero"/></clipPath><clipPath id="7c7d291d9d"><path d="M 9.242188 0.1875 C 4.15625 0.1875 0.0351562 4.308594 0.0351562 9.390625 C 0.0351562 14.476562 4.15625 18.597656 9.242188 18.597656 C 14.324219 18.597656 18.445312 14.476562 18.445312 9.390625 C 18.445312 4.308594 14.324219 0.1875 9.242188 0.1875 Z M 9.242188 0.1875 " clip-rule="nonzero"/></clipPath><clipPath id="a90d47dac7"><rect x="0" width="19" y="0" height="19"/></clipPath><clipPath id="17f8c619d9"><path d="M 420.035156 159.597656 L 438.445312 159.597656 L 438.445312 178.007812 L 420.035156 178.007812 Z M 420.035156 159.597656 " clip-rule="nonzero"/></clipPath><clipPath id="3a4ee64c61"><path d="M 429.242188 159.597656 C 424.15625 159.597656 420.035156 163.71875 420.035156 168.800781 C 420.035156 173.886719 424.15625 178.007812 429.242188 178.007812 C 434.324219 178.007812 438.445312 173.886719 438.445312 168.800781 C 438.445312 163.71875 434.324219 159.597656 429.242188 159.597656 Z M 429.242188 159.597656 " clip-rule="nonzero"/></clipPath><clipPath id="bec245c60e"><path d="M 0.0351562 0.597656 L 18.445312 0.597656 L 18.445312 19.007812 L 0.0351562 19.007812 Z M 0.0351562 0.597656 " clip-rule="nonzero"/></clipPath><clipPath id="a257c483ca"><path d="M 9.242188 0.597656 C 4.15625 0.597656 0.0351562 4.71875 0.0351562 9.800781 C 0.0351562 14.886719 4.15625 19.007812 9.242188 19.007812 C 14.324219 19.007812 18.445312 14.886719 18.445312 9.800781 C 18.445312 4.71875 14.324219 0.597656 9.242188 0.597656 Z M 9.242188 0.597656 " clip-rule="nonzero"/></clipPath><clipPath id="c13ee1e45a"><rect x="0" width="19" y="0" height="20"/></clipPath><clipPath id="800cd099e6"><path d="M 420.035156 151.898438 L 438.445312 151.898438 L 438.445312 170.308594 L 420.035156 170.308594 Z M 420.035156 151.898438 " clip-rule="nonzero"/></clipPath><clipPath id="2e3d4ec506"><path d="M 429.242188 151.898438 C 424.15625 151.898438 420.035156 156.019531 420.035156 161.101562 C 420.035156 166.1875 424.15625 170.308594 429.242188 170.308594 C 434.324219 170.308594 438.445312 166.1875 438.445312 161.101562 C 438.445312 156.019531 434.324219 151.898438 429.242188 151.898438 Z M 429.242188 151.898438 " clip-rule="nonzero"/></clipPath><clipPath id="0e90b5a932"><path d="M 0.0351562 0.898438 L 18.445312 0.898438 L 18.445312 19.308594 L 0.0351562 19.308594 Z M 0.0351562 0.898438 " clip-rule="nonzero"/></clipPath><clipPath id="ded059789c"><path d="M 9.242188 0.898438 C 4.15625 0.898438 0.0351562 5.019531 0.0351562 10.101562 C 0.0351562 15.1875 4.15625 19.308594 9.242188 19.308594 C 14.324219 19.308594 18.445312 15.1875 18.445312 10.101562 C 18.445312 5.019531 14.324219 0.898438 9.242188 0.898438 Z M 9.242188 0.898438 " clip-rule="nonzero"/></clipPath><clipPath id="0df43e8ff7"><rect x="0" width="19" y="0" height="20"/></clipPath><clipPath id="4fb9e213c9"><rect x="0" width="1500" y="0" height="513"/></clipPath><clipPath id="21829d6d21"><rect x="0" width="1391" y="0" height="238"/></clipPath></defs><g transform="matrix(1, 0, 0, 1, 0, 514)"><g clip-path="url(#4fb9e213c9)"><g clip-path="url(#d69faf99a1)"><g clip-path="url(#4d294450f8)"><g transform="matrix(1, 0, 0, 1, 262, 92)"><g clip-path="url(#efaa831132)"><g clip-path="url(#6711678df6)"><g clip-path="url(#c851b01f03)"><path fill="#021e64" d="M 0.140625 0.667969 L 131.648438 0.667969 L 131.648438 132.179688 L 0.140625 132.179688 Z M 0.140625 0.667969 " fill-opacity="1" fill-rule="nonzero"/></g></g></g></g></g></g><g clip-path="url(#04fa34b91f)"><g transform="matrix(1, 0, 0, 1, 0, 199)"><g clip-path="url(#eafc166b61)"><g clip-path="url(#b08022aa4f)"><path fill="#021e64" d="M -8.566406 0.671875 L 1546.929688 0.671875 L 1546.929688 255.441406 L -8.566406 255.441406 Z M -8.566406 0.671875 " fill-opacity="1" fill-rule="nonzero"/></g></g></g></g><g clip-path="url(#6365eecfed)"><path stroke-linecap="butt" transform="matrix(1.671946, 0, 0, 1.671946, -9.831466, 345.377504)" fill="none" stroke-linejoin="miter" d="M 0.756639 27.756668 C 310.208436 14.747876 619.657896 14.747876 929.109693 27.756668 " stroke="url(#38b58031ac)" stroke-width="36" stroke-miterlimit="4"/></g><g clip-path="url(#4259d83586)"><g clip-path="url(#d1aac01c15)"><g transform="matrix(1, 0, 0, 1, 966, 163)"><g clip-path="url(#e6e96fb503)"><g clip-path="url(#b249463023)"><g clip-path="url(#1d58ea522e)"><path fill="#021e64" d="M 0.761719 0.785156 L 132.269531 0.785156 L 132.269531 132.292969 L 0.761719 132.292969 Z M 0.761719 0.785156 " fill-opacity="1" fill-rule="nonzero"/></g></g></g></g></g></g><g clip-path="url(#e724871fef)"><g clip-path="url(#a35ad5da0d)"><g transform="matrix(1, 0, 0, 1, 535, 177)"><g clip-path="url(#b24457f114)"><g clip-path="url(#854f33134b)"><g clip-path="url(#29a7ae10de)"><path fill="#021e64" d="M 0.660156 0.84375 L 132.171875 0.84375 L 132.171875 132.351562 L 0.660156 132.351562 Z M 0.660156 0.84375 " fill-opacity="1" fill-rule="nonzero"/></g></g></g></g></g></g><g clip-path="url(#06fd8a967a)"><g clip-path="url(#20f2d2d773)"><g transform="matrix(1, 0, 0, 1, 767, 177)"><g clip-path="url(#b3fb225529)"><g clip-path="url(#919ce1c52f)"><g clip-path="url(#423d242534)"><path fill="#021e64" d="M 0.511719 0.84375 L 132.019531 0.84375 L 132.019531 132.351562 L 0.511719 132.351562 Z M 0.511719 0.84375 " fill-opacity="1" fill-rule="nonzero"/></g></g></g></g></g></g><g clip-path="url(#89cf6b5aad)"><g clip-path="url(#2a7c252605)"><g clip-path="url(#4da8367b51)"><g transform="matrix(1, 0, 0, 1, 1431, 345)"><g clip-path="url(#f2f6a93d0b)"><g clip-path="url(#4150abc1a3)"><g clip-path="url(#f18d239cbb)"><g clip-path="url(#30e526aaec)"><path fill="#021e64" d="M 20.582031 -11.128906 L 132.023438 12.109375 L 111.71875 109.476562 L 0.277344 86.238281 Z M 20.582031 -11.128906 " fill-opacity="1" fill-rule="nonzero"/></g></g></g></g></g></g></g></g><g fill="#021e64" fill-opacity="1"><g transform="translate(407.448245, 326.290507)"><g><path d="M 53.410156 -199.605469 C 42.71875 -199.605469 33.484375 -203.496094 25.703125 -211.273438 C 17.921875 -219.054688 14.03125 -228.140625 14.03125 -238.527344 C 14.03125 -249.601562 17.96875 -258.957031 25.847656 -266.605469 C 33.609375 -274.140625 42.796875 -277.90625 53.410156 -277.90625 C 64.019531 -277.90625 73.207031 -274.140625 80.972656 -266.605469 C 88.847656 -258.957031 92.785156 -249.601562 92.785156 -238.527344 C 92.785156 -228.140625 88.894531 -219.054688 81.113281 -211.273438 C 73.335938 -203.496094 64.097656 -199.605469 53.410156 -199.605469 Z M 53.410156 -226.761719 C 56.597656 -226.761719 59.433594 -228 61.910156 -230.480469 C 64.390625 -232.957031 65.628906 -235.640625 65.628906 -238.527344 C 65.628906 -241.941406 64.4375 -244.804688 62.054688 -247.117188 C 59.558594 -249.539062 56.679688 -250.75 53.410156 -250.75 C 50.140625 -250.75 47.257812 -249.539062 44.761719 -247.117188 C 42.378906 -244.804688 41.1875 -241.941406 41.1875 -238.527344 C 41.1875 -235.640625 42.425781 -232.957031 44.90625 -230.480469 C 47.382812 -228 50.21875 -226.761719 53.410156 -226.761719 Z M 18.558594 0 L 18.558594 -194.625 L 88.261719 -194.625 L 88.261719 13.578125 L 18.558594 13.578125 Z M 45.714844 0 L 32.136719 0 L 32.136719 -13.578125 L 74.683594 -13.578125 L 74.683594 0 L 61.101562 0 L 61.101562 -181.046875 L 74.683594 -181.046875 L 74.683594 -167.46875 L 32.136719 -167.46875 L 32.136719 -181.046875 L 45.714844 -181.046875 Z M 45.714844 0 "/></g></g></g><g fill="#021e64" fill-opacity="1"><g transform="translate(491.81167, 326.290507)"><g><path d="M 223.117188 -90.632812 L 221.914062 -70.15625 L 60.652344 -70.15625 L 60.652344 -83.734375 L 74.1875 -84.816406 C 75.125 -73.09375 79.292969 -63.585938 86.699219 -56.296875 C 93.863281 -49.242188 103.132812 -45.714844 114.511719 -45.714844 C 123.238281 -45.714844 130.757812 -47.820312 137.078125 -52.035156 C 143.40625 -56.253906 148.003906 -61.78125 150.871094 -68.617188 L 154.363281 -76.945312 L 223.980469 -76.945312 L 219.53125 -59.929688 C 213.609375 -37.296875 201.1875 -18.773438 182.257812 -4.359375 C 163.382812 10.011719 140.800781 17.199219 114.511719 17.199219 C 93.453125 17.199219 74.582031 12.554688 57.894531 3.265625 C 41.128906 -6.066406 27.902344 -18.871094 18.207031 -35.144531 C 8.484375 -51.464844 3.621094 -69.925781 3.621094 -90.523438 C 3.621094 -111.121094 8.484375 -129.578125 18.207031 -145.902344 C 27.902344 -162.175781 41.128906 -174.980469 57.894531 -184.3125 C 74.582031 -193.601562 93.304688 -198.246094 114.058594 -198.246094 C 134.84375 -198.246094 153.359375 -193.664062 169.609375 -184.5 C 185.90625 -175.316406 198.816406 -162.664062 208.351562 -146.542969 C 217.867188 -130.453125 222.796875 -112.15625 223.136719 -91.65625 L 223.148438 -91.144531 Z M 196.007812 -92.226562 L 209.5625 -91.429688 L 195.984375 -91.203125 C 195.722656 -106.910156 192.050781 -120.75 184.972656 -132.71875 C 177.910156 -144.664062 168.34375 -154.039062 156.273438 -160.84375 C 144.160156 -167.675781 130.089844 -171.089844 114.058594 -171.089844 C 98.003906 -171.089844 83.683594 -167.585938 71.101562 -160.582031 C 58.597656 -153.621094 48.742188 -144.09375 41.539062 -132.003906 C 34.363281 -119.960938 30.777344 -106.136719 30.777344 -90.523438 C 30.777344 -74.910156 34.363281 -61.085938 41.539062 -49.042969 C 48.742188 -36.953125 58.597656 -27.425781 71.101562 -20.464844 C 83.683594 -13.460938 98.152344 -9.957031 114.511719 -9.957031 C 134.691406 -9.957031 151.789062 -15.292969 165.804688 -25.964844 C 179.765625 -36.597656 188.917969 -50.210938 193.257812 -66.800781 L 206.394531 -63.367188 L 206.394531 -49.789062 L 163.394531 -49.789062 L 163.394531 -63.367188 L 175.917969 -58.113281 C 170.9375 -46.242188 163.015625 -36.683594 152.144531 -29.4375 C 141.261719 -22.183594 128.71875 -18.558594 114.511719 -18.558594 C 95.714844 -18.558594 80.09375 -24.6875 67.644531 -36.945312 C 55.433594 -48.964844 48.589844 -64.203125 47.113281 -82.652344 L 45.941406 -97.3125 L 209.109375 -97.3125 L 209.109375 -83.734375 L 195.554688 -84.53125 Z M 114.511719 -134.878906 C 105.359375 -134.878906 97.667969 -132.636719 91.4375 -128.15625 C 84.9375 -123.480469 80.066406 -117.210938 76.828125 -109.34375 L 64.273438 -114.511719 L 64.273438 -128.089844 L 162.488281 -128.089844 L 162.488281 -114.511719 L 149.761719 -109.785156 C 146.773438 -117.824219 142.289062 -124.0625 136.300781 -128.496094 C 130.554688 -132.75 123.292969 -134.878906 114.511719 -134.878906 Z M 114.511719 -162.039062 C 129.269531 -162.039062 141.917969 -158.128906 152.46875 -150.316406 C 162.777344 -142.679688 170.359375 -132.324219 175.21875 -119.238281 L 182.019531 -100.933594 L 43.996094 -100.933594 L 51.714844 -119.683594 C 56.925781 -132.332031 64.878906 -142.507812 75.578125 -150.203125 C 86.546875 -158.09375 99.523438 -162.039062 114.511719 -162.039062 Z M 114.511719 -162.039062 "/></g></g></g><g fill="#021e64" fill-opacity="1"><g transform="translate(694.756549, 326.290507)"><g><path d="M 131.257812 -198.246094 C 150.996094 -198.246094 168.890625 -193.363281 184.9375 -183.59375 C 200.804688 -173.9375 213.390625 -161.007812 222.695312 -144.8125 C 232.042969 -128.535156 236.71875 -110.441406 236.71875 -90.523438 C 236.71875 -70.605469 232.042969 -52.511719 222.695312 -36.234375 C 213.390625 -20.039062 200.804688 -7.109375 184.9375 2.546875 C 168.890625 12.316406 150.996094 17.199219 131.257812 17.199219 C 117.988281 17.199219 105.613281 14.816406 94.140625 10.050781 C 82.9375 5.398438 72.851562 -0.898438 63.875 -8.839844 L 72.871094 -19.011719 L 86.449219 -19.011719 L 86.449219 122.207031 L 16.292969 122.207031 L 16.292969 -194.625 L 86.449219 -194.625 L 86.449219 -162.035156 L 72.871094 -162.035156 L 63.875 -172.207031 C 72.851562 -180.148438 82.9375 -186.445312 94.140625 -191.097656 C 105.613281 -195.863281 117.988281 -198.246094 131.257812 -198.246094 Z M 131.257812 -171.089844 C 121.597656 -171.089844 112.699219 -169.398438 104.558594 -166.015625 C 96.144531 -162.523438 88.582031 -157.804688 81.867188 -151.867188 L 59.292969 -131.894531 L 59.292969 -181.046875 L 72.871094 -181.046875 L 72.871094 -167.46875 L 29.871094 -167.46875 L 29.871094 -181.046875 L 43.453125 -181.046875 L 43.453125 108.628906 L 29.871094 108.628906 L 29.871094 95.050781 L 72.871094 95.050781 L 72.871094 108.628906 L 59.292969 108.628906 L 59.292969 -49.152344 L 81.867188 -29.179688 C 88.582031 -23.242188 96.144531 -18.523438 104.558594 -15.03125 C 112.699219 -11.648438 121.597656 -9.957031 131.257812 -9.957031 C 145.917969 -9.957031 159.105469 -13.523438 170.816406 -20.652344 C 182.714844 -27.890625 192.15625 -37.59375 199.144531 -49.761719 C 206.089844 -61.851562 209.5625 -75.4375 209.5625 -90.523438 C 209.5625 -105.609375 206.089844 -119.195312 199.144531 -131.285156 C 192.15625 -143.449219 182.714844 -153.15625 170.816406 -160.394531 C 159.105469 -167.523438 145.917969 -171.089844 131.257812 -171.089844 Z M 125.828125 -49.789062 C 133.605469 -49.789062 140.5 -51.570312 146.515625 -55.132812 C 152.636719 -58.761719 157.519531 -63.707031 161.164062 -69.96875 C 164.761719 -76.15625 166.5625 -83.007812 166.5625 -90.523438 C 166.5625 -98.300781 164.78125 -105.199219 161.21875 -111.210938 C 157.570312 -117.367188 152.667969 -122.265625 146.515625 -125.914062 C 140.5 -129.476562 133.605469 -131.257812 125.828125 -131.257812 C 118.3125 -131.257812 111.460938 -129.457031 105.273438 -125.859375 C 99.011719 -122.214844 94.066406 -117.332031 90.4375 -111.210938 C 86.875 -105.199219 85.09375 -98.300781 85.09375 -90.523438 C 85.09375 -83.007812 86.890625 -76.15625 90.492188 -69.96875 C 94.117188 -63.738281 99.042969 -58.8125 105.273438 -55.1875 C 111.460938 -51.589844 118.3125 -49.789062 125.828125 -49.789062 Z M 125.828125 -22.628906 C 113.429688 -22.628906 102.023438 -25.660156 91.617188 -31.714844 C 81.25 -37.746094 73.050781 -45.945312 67.019531 -56.3125 C 60.960938 -66.71875 57.933594 -78.125 57.933594 -90.523438 C 57.933594 -103.261719 60.980469 -114.773438 67.074219 -125.054688 C 73.101562 -135.226562 81.28125 -143.320312 91.617188 -149.332031 C 102.023438 -155.386719 113.429688 -158.417969 125.828125 -158.417969 C 138.566406 -158.417969 150.078125 -155.371094 160.359375 -149.277344 C 170.5 -143.269531 178.574219 -135.195312 184.582031 -125.054688 C 190.675781 -114.773438 193.71875 -103.261719 193.71875 -90.523438 C 193.71875 -78.125 190.691406 -66.71875 184.636719 -56.3125 C 178.625 -45.976562 170.53125 -37.796875 160.359375 -31.769531 C 150.078125 -25.675781 138.566406 -22.628906 125.828125 -22.628906 Z M 125.828125 -22.628906 "/></g></g></g><g fill="#021e64" fill-opacity="1"><g transform="translate(912.637253, 326.290507)"><g><path d="M 223.117188 -90.632812 L 221.914062 -70.15625 L 60.652344 -70.15625 L 60.652344 -83.734375 L 74.1875 -84.816406 C 75.125 -73.09375 79.292969 -63.585938 86.699219 -56.296875 C 93.863281 -49.242188 103.132812 -45.714844 114.511719 -45.714844 C 123.238281 -45.714844 130.757812 -47.820312 137.078125 -52.035156 C 143.40625 -56.253906 148.003906 -61.78125 150.871094 -68.617188 L 154.363281 -76.945312 L 223.980469 -76.945312 L 219.53125 -59.929688 C 213.609375 -37.296875 201.1875 -18.773438 182.257812 -4.359375 C 163.382812 10.011719 140.800781 17.199219 114.511719 17.199219 C 93.453125 17.199219 74.582031 12.554688 57.894531 3.265625 C 41.128906 -6.066406 27.902344 -18.871094 18.207031 -35.144531 C 8.484375 -51.464844 3.621094 -69.925781 3.621094 -90.523438 C 3.621094 -111.121094 8.484375 -129.578125 18.207031 -145.902344 C 27.902344 -162.175781 41.128906 -174.980469 57.894531 -184.3125 C 74.582031 -193.601562 93.304688 -198.246094 114.058594 -198.246094 C 134.84375 -198.246094 153.359375 -193.664062 169.609375 -184.5 C 185.90625 -175.316406 198.816406 -162.664062 208.351562 -146.542969 C 217.867188 -130.453125 222.796875 -112.15625 223.136719 -91.65625 L 223.148438 -91.144531 Z M 196.007812 -92.226562 L 209.5625 -91.429688 L 195.984375 -91.203125 C 195.722656 -106.910156 192.050781 -120.75 184.972656 -132.71875 C 177.910156 -144.664062 168.34375 -154.039062 156.273438 -160.84375 C 144.160156 -167.675781 130.089844 -171.089844 114.058594 -171.089844 C 98.003906 -171.089844 83.683594 -167.585938 71.101562 -160.582031 C 58.597656 -153.621094 48.742188 -144.09375 41.539062 -132.003906 C 34.363281 -119.960938 30.777344 -106.136719 30.777344 -90.523438 C 30.777344 -74.910156 34.363281 -61.085938 41.539062 -49.042969 C 48.742188 -36.953125 58.597656 -27.425781 71.101562 -20.464844 C 83.683594 -13.460938 98.152344 -9.957031 114.511719 -9.957031 C 134.691406 -9.957031 151.789062 -15.292969 165.804688 -25.964844 C 179.765625 -36.597656 188.917969 -50.210938 193.257812 -66.800781 L 206.394531 -63.367188 L 206.394531 -49.789062 L 163.394531 -49.789062 L 163.394531 -63.367188 L 175.917969 -58.113281 C 170.9375 -46.242188 163.015625 -36.683594 152.144531 -29.4375 C 141.261719 -22.183594 128.71875 -18.558594 114.511719 -18.558594 C 95.714844 -18.558594 80.09375 -24.6875 67.644531 -36.945312 C 55.433594 -48.964844 48.589844 -64.203125 47.113281 -82.652344 L 45.941406 -97.3125 L 209.109375 -97.3125 L 209.109375 -83.734375 L 195.554688 -84.53125 Z M 114.511719 -134.878906 C 105.359375 -134.878906 97.667969 -132.636719 91.4375 -128.15625 C 84.9375 -123.480469 80.066406 -117.210938 76.828125 -109.34375 L 64.273438 -114.511719 L 64.273438 -128.089844 L 162.488281 -128.089844 L 162.488281 -114.511719 L 149.761719 -109.785156 C 146.773438 -117.824219 142.289062 -124.0625 136.300781 -128.496094 C 130.554688 -132.75 123.292969 -134.878906 114.511719 -134.878906 Z M 114.511719 -162.039062 C 129.269531 -162.039062 141.917969 -158.128906 152.46875 -150.316406 C 162.777344 -142.679688 170.359375 -132.324219 175.21875 -119.238281 L 182.019531 -100.933594 L 43.996094 -100.933594 L 51.714844 -119.683594 C 56.925781 -132.332031 64.878906 -142.507812 75.578125 -150.203125 C 86.546875 -158.09375 99.523438 -162.039062 114.511719 -162.039062 Z M 114.511719 -162.039062 "/></g></g></g><g fill="#021e64" fill-opacity="1"><g transform="translate(1115.582107, 326.290507)"><g><path d="M 128.542969 -198.246094 C 134.570312 -198.246094 140.285156 -197.707031 145.691406 -196.625 L 156.605469 -194.441406 L 156.605469 -125.023438 L 139.296875 -129.96875 C 137.886719 -130.375 136.261719 -130.683594 134.425781 -130.898438 C 132.386719 -131.136719 130.125 -131.257812 127.636719 -131.257812 C 115.5 -131.257812 105.527344 -127.636719 97.722656 -120.398438 C 90.207031 -113.429688 86.449219 -103.921875 86.449219 -91.882812 L 86.449219 13.578125 L 16.292969 13.578125 L 16.292969 -194.625 L 86.449219 -194.625 L 86.449219 -156.152344 L 72.871094 -156.152344 L 61.875 -164.117188 C 69.421875 -174.542969 78.859375 -182.8125 90.183594 -188.921875 C 101.703125 -195.136719 114.488281 -198.246094 128.542969 -198.246094 Z M 128.542969 -171.089844 C 119.0625 -171.089844 110.574219 -169.066406 103.082031 -165.023438 C 95.398438 -160.875 88.992188 -155.265625 83.871094 -148.1875 L 59.292969 -114.25 L 59.292969 -181.046875 L 72.871094 -181.046875 L 72.871094 -167.46875 L 29.871094 -167.46875 L 29.871094 -181.046875 L 43.453125 -181.046875 L 43.453125 0 L 29.871094 0 L 29.871094 -13.578125 L 72.871094 -13.578125 L 72.871094 0 L 59.292969 0 L 59.292969 -91.882812 C 59.292969 -111.824219 65.945312 -127.96875 79.253906 -140.308594 C 92.265625 -152.378906 108.394531 -158.417969 127.636719 -158.417969 C 131.1875 -158.417969 134.507812 -158.234375 137.597656 -157.871094 C 140.890625 -157.484375 143.941406 -156.886719 146.757812 -156.082031 L 143.027344 -143.027344 L 129.449219 -143.027344 L 129.449219 -183.308594 L 143.027344 -183.308594 L 140.363281 -169.996094 C 136.714844 -170.722656 132.777344 -171.089844 128.542969 -171.089844 Z M 128.542969 -171.089844 "/></g></g></g><g fill="#ffffff" fill-opacity="1"><g transform="translate(407.448245, 326.290507)"><g><path d="M 53.40625 -213.1875 C 46.46875 -213.1875 40.429688 -215.75 35.296875 -220.875 C 30.171875 -226.007812 27.609375 -231.894531 27.609375 -238.53125 C 27.609375 -245.769531 30.171875 -251.878906 35.296875 -256.859375 C 40.429688 -261.835938 46.46875 -264.328125 53.40625 -264.328125 C 60.34375 -264.328125 66.375 -261.835938 71.5 -256.859375 C 76.632812 -251.878906 79.203125 -245.769531 79.203125 -238.53125 C 79.203125 -231.894531 76.632812 -226.007812 71.5 -220.875 C 66.375 -215.75 60.34375 -213.1875 53.40625 -213.1875 Z M 32.140625 0 L 32.140625 -181.046875 L 74.6875 -181.046875 L 74.6875 0 Z M 32.140625 0 "/></g></g></g><g fill="#ffffff" fill-opacity="1"><g transform="translate(491.81167, 326.290507)"><g><path d="M 209.5625 -91.421875 L 209.109375 -83.734375 L 60.65625 -83.734375 C 61.863281 -68.648438 67.367188 -56.28125 77.171875 -46.625 C 86.972656 -36.96875 99.421875 -32.140625 114.515625 -32.140625 C 125.984375 -32.140625 136.015625 -35.003906 144.609375 -40.734375 C 153.210938 -46.460938 159.472656 -54.003906 163.390625 -63.359375 L 206.390625 -63.359375 C 201.265625 -43.753906 190.476562 -27.6875 174.03125 -15.15625 C 157.582031 -2.632812 137.742188 3.625 114.515625 3.625 C 95.804688 3.625 79.132812 -0.445312 64.5 -8.59375 C 49.863281 -16.75 38.320312 -27.914062 29.875 -42.09375 C 21.425781 -56.269531 17.203125 -72.410156 17.203125 -90.515625 C 17.203125 -108.628906 21.425781 -124.773438 29.875 -138.953125 C 38.320312 -153.128906 49.863281 -164.289062 64.5 -172.4375 C 79.132812 -180.59375 95.65625 -184.671875 114.0625 -184.671875 C 132.46875 -184.671875 148.757812 -180.671875 162.9375 -172.671875 C 177.125 -164.671875 188.363281 -153.65625 196.65625 -139.625 C 204.957031 -125.59375 209.257812 -109.523438 209.5625 -91.421875 Z M 114.515625 -148.453125 C 102.441406 -148.453125 92.101562 -145.359375 83.5 -139.171875 C 74.90625 -132.992188 68.492188 -124.773438 64.265625 -114.515625 L 162.484375 -114.515625 C 158.566406 -125.078125 152.535156 -133.375 144.390625 -139.40625 C 136.242188 -145.4375 126.285156 -148.453125 114.515625 -148.453125 Z M 114.515625 -148.453125 "/></g></g></g><g fill="#ffffff" fill-opacity="1"><g transform="translate(694.756549, 326.290507)"><g><path d="M 131.265625 -184.671875 C 148.460938 -184.671875 164 -180.445312 177.875 -172 C 191.757812 -163.550781 202.773438 -152.234375 210.921875 -138.046875 C 219.066406 -123.867188 223.140625 -108.023438 223.140625 -90.515625 C 223.140625 -73.015625 219.066406 -57.171875 210.921875 -42.984375 C 202.773438 -28.804688 191.757812 -17.492188 177.875 -9.046875 C 164 -0.597656 148.460938 3.625 131.265625 3.625 C 119.796875 3.625 109.15625 1.585938 99.34375 -2.484375 C 89.539062 -6.554688 80.71875 -12.066406 72.875 -19.015625 L 72.875 108.625 L 29.875 108.625 L 29.875 -181.046875 L 72.875 -181.046875 L 72.875 -162.03125 C 80.71875 -168.976562 89.539062 -174.488281 99.34375 -178.5625 C 109.15625 -182.632812 119.796875 -184.671875 131.265625 -184.671875 Z M 125.828125 -36.203125 C 136.085938 -36.203125 145.289062 -38.613281 153.4375 -43.4375 C 161.582031 -48.269531 168.066406 -54.835938 172.890625 -63.140625 C 177.722656 -71.441406 180.140625 -80.566406 180.140625 -90.515625 C 180.140625 -100.773438 177.722656 -109.976562 172.890625 -118.125 C 168.066406 -126.28125 161.582031 -132.769531 153.4375 -137.59375 C 145.289062 -142.425781 136.085938 -144.84375 125.828125 -144.84375 C 115.867188 -144.84375 106.738281 -142.425781 98.4375 -137.59375 C 90.144531 -132.769531 83.582031 -126.28125 78.75 -118.125 C 73.925781 -109.976562 71.515625 -100.773438 71.515625 -90.515625 C 71.515625 -80.566406 73.925781 -71.441406 78.75 -63.140625 C 83.582031 -54.835938 90.144531 -48.269531 98.4375 -43.4375 C 106.738281 -38.613281 115.867188 -36.203125 125.828125 -36.203125 Z M 125.828125 -36.203125 "/></g></g></g><g fill="#ffffff" fill-opacity="1"><g transform="translate(912.637253, 326.290507)"><g><path d="M 209.5625 -91.421875 L 209.109375 -83.734375 L 60.65625 -83.734375 C 61.863281 -68.648438 67.367188 -56.28125 77.171875 -46.625 C 86.972656 -36.96875 99.421875 -32.140625 114.515625 -32.140625 C 125.984375 -32.140625 136.015625 -35.003906 144.609375 -40.734375 C 153.210938 -46.460938 159.472656 -54.003906 163.390625 -63.359375 L 206.390625 -63.359375 C 201.265625 -43.753906 190.476562 -27.6875 174.03125 -15.15625 C 157.582031 -2.632812 137.742188 3.625 114.515625 3.625 C 95.804688 3.625 79.132812 -0.445312 64.5 -8.59375 C 49.863281 -16.75 38.320312 -27.914062 29.875 -42.09375 C 21.425781 -56.269531 17.203125 -72.410156 17.203125 -90.515625 C 17.203125 -108.628906 21.425781 -124.773438 29.875 -138.953125 C 38.320312 -153.128906 49.863281 -164.289062 64.5 -172.4375 C 79.132812 -180.59375 95.65625 -184.671875 114.0625 -184.671875 C 132.46875 -184.671875 148.757812 -180.671875 162.9375 -172.671875 C 177.125 -164.671875 188.363281 -153.65625 196.65625 -139.625 C 204.957031 -125.59375 209.257812 -109.523438 209.5625 -91.421875 Z M 114.515625 -148.453125 C 102.441406 -148.453125 92.101562 -145.359375 83.5 -139.171875 C 74.90625 -132.992188 68.492188 -124.773438 64.265625 -114.515625 L 162.484375 -114.515625 C 158.566406 -125.078125 152.535156 -133.375 144.390625 -139.40625 C 136.242188 -145.4375 126.285156 -148.453125 114.515625 -148.453125 Z M 114.515625 -148.453125 "/></g></g></g><g fill="#ffffff" fill-opacity="1"><g transform="translate(1115.582107, 326.290507)"><g><path d="M 128.546875 -184.671875 C 133.671875 -184.671875 138.5 -184.21875 143.03125 -183.3125 L 143.03125 -143.03125 C 140.914062 -143.632812 138.578125 -144.085938 136.015625 -144.390625 C 133.453125 -144.691406 130.660156 -144.84375 127.640625 -144.84375 C 111.953125 -144.84375 98.898438 -140.015625 88.484375 -130.359375 C 78.078125 -120.703125 72.875 -107.875 72.875 -91.875 L 72.875 0 L 29.875 0 L 29.875 -181.046875 L 72.875 -181.046875 L 72.875 -156.15625 C 79.207031 -164.90625 87.125 -171.84375 96.625 -176.96875 C 106.132812 -182.101562 116.773438 -184.671875 128.546875 -184.671875 Z M 128.546875 -184.671875 "/></g></g></g><g transform="matrix(1, 0, 0, 1, 203, 5)"><g clip-path="url(#18e9a0aed1)"><g fill="#021e64" fill-opacity="1"><g transform="translate(0.160397, 312.987976)"><g><path d="M 133.371094 -279.152344 C 150.308594 -279.152344 165.59375 -275.042969 179.226562 -266.832031 C 192.6875 -258.71875 203.386719 -247.847656 211.324219 -234.21875 C 219.320312 -220.480469 223.320312 -205.328125 223.320312 -188.757812 C 223.320312 -172.160156 219.308594 -157.058594 211.285156 -143.453125 C 203.308594 -129.925781 192.546875 -119.253906 179.007812 -111.441406 C 165.429688 -103.609375 150.21875 -99.695312 133.371094 -99.695312 L 72.667969 -99.695312 L 72.667969 -112.988281 L 85.960938 -112.988281 L 85.960938 13.296875 L 15.949219 13.296875 L 15.949219 -279.152344 Z M 133.371094 -252.558594 L 29.242188 -252.558594 L 29.242188 -265.855469 L 42.539062 -265.855469 L 42.539062 0 L 29.242188 0 L 29.242188 -13.296875 L 72.667969 -13.296875 L 72.667969 0 L 59.371094 0 L 59.371094 -126.285156 L 133.371094 -126.285156 C 145.472656 -126.285156 156.253906 -129.015625 165.71875 -134.472656 C 175.21875 -139.953125 182.773438 -147.449219 188.382812 -156.960938 C 193.949219 -166.398438 196.730469 -176.996094 196.730469 -188.757812 C 196.730469 -200.542969 193.9375 -211.238281 188.34375 -220.839844 C 182.691406 -230.546875 175.078125 -238.285156 165.5 -244.054688 C 156.089844 -249.726562 145.382812 -252.558594 133.371094 -252.558594 Z M 127.167969 -163.945312 C 135.386719 -163.945312 142.085938 -166.1875 147.269531 -170.675781 C 151.886719 -174.667969 154.195312 -180.550781 154.195312 -188.3125 C 154.195312 -195.898438 151.8125 -201.84375 147.054688 -206.144531 C 141.90625 -210.796875 135.277344 -213.125 127.167969 -213.125 L 72.667969 -213.125 L 72.667969 -226.421875 L 85.960938 -226.421875 L 85.960938 -150.652344 L 72.667969 -150.652344 L 72.667969 -163.945312 Z M 127.167969 -137.355469 L 59.371094 -137.355469 L 59.371094 -239.714844 L 127.167969 -239.714844 C 142.101562 -239.714844 154.671875 -235.101562 164.882812 -225.871094 C 175.484375 -216.289062 180.785156 -203.769531 180.785156 -188.3125 C 180.785156 -172.449219 175.414062 -159.863281 164.667969 -150.566406 C 154.492188 -141.761719 141.992188 -137.355469 127.167969 -137.355469 Z M 127.167969 -137.355469 "/></g></g></g><g fill="#ffffff" fill-opacity="1"><g transform="translate(0.160397, 312.987976)"><g><path d="M 133.375 -265.84375 C 147.84375 -265.84375 160.835938 -262.375 172.359375 -255.4375 C 183.878906 -248.5 193.035156 -239.191406 199.828125 -227.515625 C 206.617188 -215.847656 210.015625 -202.925781 210.015625 -188.75 C 210.015625 -174.570312 206.617188 -161.722656 199.828125 -150.203125 C 193.035156 -138.679688 183.878906 -129.597656 172.359375 -122.953125 C 160.835938 -116.304688 147.84375 -112.984375 133.375 -112.984375 L 72.671875 -112.984375 L 72.671875 0 L 29.25 0 L 29.25 -265.84375 Z M 127.171875 -150.65625 C 138.691406 -150.65625 148.289062 -153.976562 155.96875 -160.625 C 163.644531 -167.269531 167.484375 -176.5 167.484375 -188.3125 C 167.484375 -199.832031 163.644531 -209.0625 155.96875 -216 C 148.289062 -222.945312 138.691406 -226.421875 127.171875 -226.421875 L 72.671875 -226.421875 L 72.671875 -150.65625 Z M 127.171875 -150.65625 "/></g></g></g></g></g><g clip-path="url(#cade6a9c8e)"><g clip-path="url(#179e4aadc1)"><g clip-path="url(#b2c0dcb904)"><g transform="matrix(1, 0, 0, 1, 1480, 354)"><g clip-path="url(#fb1046c61e)"><g clip-path="url(#3814bff477)"><g clip-path="url(#d4cdc8e202)"><g clip-path="url(#951f91339c)"><path fill="#021e64" d="M 33.453125 -18.457031 L 98.785156 19.398438 L 65.710938 76.480469 L 0.378906 38.625 Z M 33.453125 -18.457031 " fill-opacity="1" fill-rule="nonzero"/></g></g></g></g></g></g></g></g><g clip-path="url(#76ba9173b4)"><g clip-path="url(#faa5dbbee7)"><g clip-path="url(#bff5ca9627)"><g transform="matrix(1, 0, 0, 1, 1474, 341)"><g clip-path="url(#b4fa162af1)"><g clip-path="url(#ef04003d9a)"><g clip-path="url(#23c040cc6e)"><g clip-path="url(#41b43a7d5d)"><path fill="#021e64" d="M 31.359375 -16.925781 L 98.222656 18.152344 L 67.574219 76.570312 L 0.710938 41.492188 Z M 31.359375 -16.925781 " fill-opacity="1" fill-rule="nonzero"/></g></g></g></g></g></g></g></g><g clip-path="url(#43b8143bbc)"><g clip-path="url(#473ddc47d2)"><g transform="matrix(1, 0, 0, 1, 1207, 188)"><g clip-path="url(#29ef5dd8bc)"><g clip-path="url(#e19d91d990)"><g clip-path="url(#f66b4a016d)"><path fill="#021e64" d="M 0.644531 0.71875 L 61.203125 0.71875 L 61.203125 61.277344 L 0.644531 61.277344 Z M 0.644531 0.71875 " fill-opacity="1" fill-rule="nonzero"/></g></g></g></g></g></g><g clip-path="url(#7d199a15d5)"><g clip-path="url(#0caf4f9280)"><g transform="matrix(1, 0, 0, 1, 401, 170)"><g clip-path="url(#ecbc717ce9)"><g clip-path="url(#f851338a2c)"><g clip-path="url(#1f4b904bd9)"><path fill="#021e64" d="M 0.625 0.308594 L 37.445312 0.308594 L 37.445312 37.128906 L 0.625 37.128906 Z M 0.625 0.308594 " fill-opacity="1" fill-rule="nonzero"/></g></g></g></g></g></g><g clip-path="url(#17d0fa5ed5)"><g clip-path="url(#f1163bc74c)"><g transform="matrix(1, 0, 0, 1, 420, 141)"><g clip-path="url(#a90d47dac7)"><g clip-path="url(#780f215db1)"><g clip-path="url(#7c7d291d9d)"><path fill="#021e64" d="M 0.0351562 0.1875 L 18.445312 0.1875 L 18.445312 18.597656 L 0.0351562 18.597656 Z M 0.0351562 0.1875 " fill-opacity="1" fill-rule="nonzero"/></g></g></g></g></g></g><g clip-path="url(#17f8c619d9)"><g clip-path="url(#3a4ee64c61)"><g transform="matrix(1, 0, 0, 1, 420, 159)"><g clip-path="url(#c13ee1e45a)"><g clip-path="url(#bec245c60e)"><g clip-path="url(#a257c483ca)"><path fill="#021e64" d="M 0.0351562 0.597656 L 18.445312 0.597656 L 18.445312 19.007812 L 0.0351562 19.007812 Z M 0.0351562 0.597656 " fill-opacity="1" fill-rule="nonzero"/></g></g></g></g></g></g><g clip-path="url(#800cd099e6)"><g clip-path="url(#2e3d4ec506)"><g transform="matrix(1, 0, 0, 1, 420, 151)"><g clip-path="url(#0df43e8ff7)"><g clip-path="url(#0e90b5a932)"><g clip-path="url(#ded059789c)"><path fill="#021e64" d="M 0.0351562 0.898438 L 18.445312 0.898438 L 18.445312 19.308594 L 0.0351562 19.308594 Z M 0.0351562 0.898438 " fill-opacity="1" fill-rule="nonzero"/></g></g></g></g></g></g></g></g><g transform="matrix(1, 0, 0, 1, 55, 331)"><g clip-path="url(#21829d6d21)"><g fill="#021e64" fill-opacity="1"><g transform="translate(27.548323, 199.217939)"><g><path d="M 47.296875 -108.96875 L 62.375 -112.578125 L 84.484375 -20.234375 L 69.40625 -16.625 L 60 -55.875 L 15.828125 -45.296875 L 25.234375 -6.046875 L 10.15625 -2.4375 L -11.953125 -94.78125 L 3.125 -98.390625 L 12.484375 -59.296875 L 56.65625 -69.875 Z M 47.296875 -108.96875 "/></g></g></g><g fill="#021e64" fill-opacity="1"><g transform="translate(111.867222, 178.955922)"><g><path d="M 11.46875 -78.65625 C 9.289062 -78.207031 7.234375 -78.617188 5.296875 -79.890625 C 3.367188 -81.160156 2.179688 -82.878906 1.734375 -85.046875 C 1.265625 -87.316406 1.664062 -89.390625 2.9375 -91.265625 C 4.21875 -93.148438 5.945312 -94.316406 8.125 -94.765625 C 10.394531 -95.242188 12.488281 -94.875 14.40625 -93.65625 C 16.332031 -92.4375 17.53125 -90.691406 18 -88.421875 C 18.445312 -86.253906 18.035156 -84.203125 16.765625 -82.265625 C 15.503906 -80.335938 13.738281 -79.132812 11.46875 -78.65625 Z M 35.78125 -83.71875 C 33.613281 -83.257812 31.5625 -83.664062 29.625 -84.9375 C 27.6875 -86.207031 26.492188 -87.925781 26.046875 -90.09375 C 25.578125 -92.363281 25.984375 -94.4375 27.265625 -96.3125 C 28.546875 -98.195312 30.269531 -99.367188 32.4375 -99.828125 C 34.71875 -100.296875 36.789062 -99.914062 38.65625 -98.6875 C 40.53125 -97.46875 41.703125 -95.722656 42.171875 -93.453125 C 42.617188 -91.285156 42.234375 -89.238281 41.015625 -87.3125 C 39.804688 -85.382812 38.0625 -84.1875 35.78125 -83.71875 Z M 75.265625 -28.234375 L 78.671875 -28.9375 L 81.1875 -16.859375 C 79.90625 -15.734375 78.335938 -14.976562 76.484375 -14.59375 C 72.660156 -13.800781 69.101562 -14.0625 65.8125 -15.375 C 62.53125 -16.6875 59.789062 -18.726562 57.59375 -21.5 C 55.675781 -17.757812 53 -14.5625 49.5625 -11.90625 C 46.125 -9.257812 42.132812 -7.460938 37.59375 -6.515625 C 31.8125 -5.316406 26.21875 -5.664062 20.8125 -7.5625 C 15.414062 -9.457031 10.816406 -12.539062 7.015625 -16.8125 C 3.222656 -21.082031 0.703125 -26.21875 -0.546875 -32.21875 C -1.785156 -38.195312 -1.515625 -43.90625 0.265625 -49.34375 C 2.046875 -54.78125 5.035156 -59.441406 9.234375 -63.328125 C 13.441406 -67.222656 18.4375 -69.769531 24.21875 -70.96875 C 28.144531 -71.789062 31.953125 -71.851562 35.640625 -71.15625 C 39.335938 -70.46875 42.726562 -69.207031 45.8125 -67.375 L 44.453125 -73.875 L 59.171875 -76.9375 L 68.09375 -34.03125 C 68.644531 -31.332031 69.613281 -29.613281 71 -28.875 C 72.394531 -28.144531 73.816406 -27.929688 75.265625 -28.234375 Z M 36.609375 -20.53125 C 40.015625 -21.238281 42.96875 -22.710938 45.46875 -24.953125 C 47.96875 -27.191406 49.75 -29.90625 50.8125 -33.09375 C 51.882812 -36.28125 52.066406 -39.582031 51.359375 -43 C 50.628906 -46.5 49.144531 -49.472656 46.90625 -51.921875 C 44.675781 -54.367188 41.96875 -56.125 38.78125 -57.1875 C 35.59375 -58.25 32.296875 -58.425781 28.890625 -57.71875 C 25.484375 -57.007812 22.53125 -55.535156 20.03125 -53.296875 C 17.539062 -51.054688 15.757812 -48.367188 14.6875 -45.234375 C 13.613281 -42.097656 13.441406 -38.78125 14.171875 -35.28125 C 14.878906 -31.863281 16.351562 -28.90625 18.59375 -26.40625 C 20.832031 -23.90625 23.539062 -22.125 26.71875 -21.0625 C 29.90625 -20 33.203125 -19.820312 36.609375 -20.53125 Z M 36.609375 -20.53125 "/></g></g></g><g fill="#021e64" fill-opacity="1"><g transform="translate(185.010172, 163.725223)"><g><path d="M 34.9375 -5.046875 C 26.738281 -3.554688 19.9375 -4.570312 14.53125 -8.09375 C 9.125 -11.625 5.738281 -17.125 4.375 -24.59375 L -2.734375 -63.828125 L 11.90625 -66.484375 L 18.6875 -29.109375 C 19.382812 -25.273438 21.019531 -22.4375 23.59375 -20.59375 C 26.175781 -18.757812 29.128906 -18.144531 32.453125 -18.75 C 35.773438 -19.351562 38.328125 -20.96875 40.109375 -23.59375 C 41.890625 -26.226562 42.429688 -29.460938 41.734375 -33.296875 L 34.953125 -70.671875 L 49.578125 -73.328125 L 56.6875 -34.09375 C 58.050781 -26.625 56.816406 -20.285156 52.984375 -15.078125 C 49.160156 -9.878906 43.144531 -6.535156 34.9375 -5.046875 Z M 34.9375 -5.046875 "/></g></g></g><g fill="#021e64" fill-opacity="1"><g transform="translate(244.402088, 152.931794)"><g><path d="M 28.171875 -3.265625 C 22.953125 -2.421875 17.8125 -2.945312 12.75 -4.84375 C 7.695312 -6.75 4.09375 -9.726562 1.9375 -13.78125 L 13.09375 -21.1875 C 14.414062 -18.945312 16.265625 -17.425781 18.640625 -16.625 C 21.015625 -15.820312 23.34375 -15.609375 25.625 -15.984375 C 27.820312 -16.335938 29.585938 -17.160156 30.921875 -18.453125 C 32.265625 -19.742188 32.78125 -21.375 32.46875 -23.34375 C 32.175781 -25.125 31.1875 -26.4375 29.5 -27.28125 C 27.8125 -28.125 25.191406 -28.957031 21.640625 -29.78125 C 18.335938 -30.414062 15.148438 -31.285156 12.078125 -32.390625 C 9.015625 -33.503906 6.378906 -35.113281 4.171875 -37.21875 C 1.960938 -39.320312 0.554688 -42.25 -0.046875 -46 C -0.929688 -51.507812 0.285156 -56.347656 3.609375 -60.515625 C 6.941406 -64.691406 11.53125 -67.253906 17.375 -68.203125 C 21.644531 -68.890625 25.722656 -68.613281 29.609375 -67.375 C 33.492188 -66.132812 36.488281 -64.289062 38.59375 -61.84375 L 30.453125 -52.671875 C 28.078125 -55.503906 24.695312 -56.566406 20.3125 -55.859375 C 15.84375 -55.140625 13.910156 -52.898438 14.515625 -49.140625 C 14.835938 -47.171875 15.828125 -45.835938 17.484375 -45.140625 C 19.148438 -44.453125 21.585938 -43.722656 24.796875 -42.953125 C 27.804688 -42.265625 30.867188 -41.367188 33.984375 -40.265625 C 37.097656 -39.171875 39.796875 -37.5 42.078125 -35.25 C 44.359375 -33 45.816406 -29.894531 46.453125 -25.9375 C 47.367188 -20.3125 46.109375 -15.375 42.671875 -11.125 C 39.242188 -6.882812 34.410156 -4.265625 28.171875 -3.265625 Z M 28.171875 -3.265625 "/></g></g></g><g fill="#021e64" fill-opacity="1"><g transform="translate(287.66787, 145.946019)"><g><path d="M 10.328125 -1.53125 L -6.15625 -112.984375 L 8.71875 -115.1875 L 25.203125 -3.734375 Z M 10.328125 -1.53125 "/></g></g></g><g fill="#021e64" fill-opacity="1"><g transform="translate(313.437016, 142.08048)"><g><path d="M 8.34375 -76.375 C 5.9375 -76.039062 3.722656 -76.640625 1.703125 -78.171875 C -0.316406 -79.703125 -1.488281 -81.617188 -1.8125 -83.921875 C -2.15625 -86.429688 -1.554688 -88.671875 -0.015625 -90.640625 C 1.523438 -92.609375 3.5 -93.757812 5.90625 -94.09375 C 8.3125 -94.425781 10.515625 -93.851562 12.515625 -92.375 C 14.523438 -90.894531 15.703125 -88.898438 16.046875 -86.390625 C 16.367188 -84.085938 15.765625 -81.925781 14.234375 -79.90625 C 12.710938 -77.882812 10.75 -76.707031 8.34375 -76.375 Z M 11.125 -1.53125 L 2.5 -64.234375 L 17.234375 -66.265625 L 25.859375 -3.5625 Z M 11.125 -1.53125 "/></g></g></g><g fill="#021e64" fill-opacity="1"><g transform="translate(340.355615, 138.110904)"><g><path d="M 39.90625 -3.515625 C 33.40625 -2.734375 27.441406 -3.476562 22.015625 -5.75 C 16.585938 -8.019531 12.109375 -11.46875 8.578125 -16.09375 C 5.054688 -20.71875 2.929688 -26.070312 2.203125 -32.15625 C 1.460938 -38.320312 2.265625 -44.039062 4.609375 -49.3125 C 6.953125 -54.59375 10.488281 -58.976562 15.21875 -62.46875 C 19.957031 -65.957031 25.578125 -68.09375 32.078125 -68.875 C 40.453125 -69.875 47.847656 -68.421875 54.265625 -64.515625 C 60.691406 -60.609375 65.175781 -55.140625 67.71875 -48.109375 L 52.15625 -46.25 C 50.289062 -49.320312 47.722656 -51.671875 44.453125 -53.296875 C 41.179688 -54.921875 37.609375 -55.503906 33.734375 -55.046875 C 28.492188 -54.421875 24.253906 -52.078125 21.015625 -48.015625 C 17.785156 -43.960938 16.488281 -39.269531 17.125 -33.9375 C 17.769531 -28.582031 20.140625 -24.316406 24.234375 -21.140625 C 28.335938 -17.972656 33.007812 -16.703125 38.25 -17.328125 C 42.125 -17.785156 45.457031 -19.191406 48.25 -21.546875 C 51.050781 -23.910156 52.992188 -26.800781 54.078125 -30.21875 L 69.640625 -32.078125 C 68.828125 -24.648438 65.757812 -18.28125 60.4375 -12.96875 C 55.125 -7.664062 48.28125 -4.515625 39.90625 -3.515625 Z M 39.90625 -3.515625 "/></g></g></g><g fill="#021e64" fill-opacity="1"><g transform="translate(406.076722, 130.127634)"><g><path d="M 34.6875 -68.140625 C 39.09375 -68.566406 43.15625 -67.867188 46.875 -66.046875 C 50.601562 -64.234375 53.6875 -61.613281 56.125 -58.1875 C 58.570312 -54.757812 60.015625 -50.734375 60.453125 -46.109375 L 64.265625 -6.109375 L 49.3125 -4.6875 L 45.640625 -43.28125 C 45.316406 -46.632812 43.914062 -49.332031 41.4375 -51.375 C 38.96875 -53.425781 36.050781 -54.289062 32.6875 -53.96875 C 29.332031 -53.65625 26.59375 -52.148438 24.46875 -49.453125 C 22.34375 -46.765625 21.441406 -43.738281 21.765625 -40.375 L 25.375 -2.40625 L 10.390625 -0.984375 L -0.28125 -113.15625 L 14.703125 -114.578125 L 19.8125 -60.84375 C 21.738281 -62.832031 23.960938 -64.476562 26.484375 -65.78125 C 29.003906 -67.082031 31.738281 -67.867188 34.6875 -68.140625 Z M 34.6875 -68.140625 "/></g></g></g><g fill="#021e64" fill-opacity="1"><g transform="translate(469.275281, 123.95325)"><g><path d="M 70.84375 -37.015625 L 70.875 -34.328125 L 19.109375 -30.6875 C 19.898438 -25.457031 22.125 -21.273438 25.78125 -18.140625 C 29.4375 -15.015625 33.894531 -13.632812 39.15625 -14 C 43.15625 -14.28125 46.582031 -15.523438 49.4375 -17.734375 C 52.289062 -19.953125 54.289062 -22.738281 55.4375 -26.09375 L 70.4375 -27.140625 C 69.125 -20.179688 65.753906 -14.316406 60.328125 -9.546875 C 54.898438 -4.773438 48.132812 -2.101562 40.03125 -1.53125 C 33.5 -1.070312 27.582031 -2.085938 22.28125 -4.578125 C 16.976562 -7.066406 12.679688 -10.675781 9.390625 -15.40625 C 6.097656 -20.144531 4.226562 -25.675781 3.78125 -32 C 3.34375 -38.300781 4.421875 -44.03125 7.015625 -49.1875 C 9.617188 -54.34375 13.367188 -58.519531 18.265625 -61.71875 C 23.171875 -64.914062 28.835938 -66.742188 35.265625 -67.203125 C 41.679688 -67.648438 47.457031 -66.648438 52.59375 -64.203125 C 57.738281 -61.765625 61.925781 -58.195312 65.15625 -53.5 C 68.394531 -48.8125 70.289062 -43.316406 70.84375 -37.015625 Z M 36.296875 -54.578125 C 32.085938 -54.285156 28.554688 -52.957031 25.703125 -50.59375 C 22.859375 -48.226562 20.828125 -45.203125 19.609375 -41.515625 L 53.875 -43.921875 C 52.238281 -47.503906 49.925781 -50.25 46.9375 -52.15625 C 43.945312 -54.0625 40.398438 -54.867188 36.296875 -54.578125 Z M 36.296875 -54.578125 "/></g></g></g><g fill="#021e64" fill-opacity="1"><g transform="translate(537.757197, 119.23751)"><g/></g></g><g fill="#021e64" fill-opacity="1"><g transform="translate(565.468883, 117.451803)"><g><path d="M 68.328125 -2.203125 L 29.546875 -45.75 L 24.484375 -45.59375 L 25.9375 -0.84375 L 10.4375 -0.34375 L 7.375 -95.25 L 22.875 -95.75 L 24.046875 -59.515625 L 29.421875 -59.6875 L 62.734375 -97.03125 L 83.125 -97.6875 L 42.453125 -53.296875 L 89.359375 -2.890625 Z M 68.328125 -2.203125 "/></g></g></g><g fill="#021e64" fill-opacity="1"><g transform="translate(642.322271, 115.055379)"><g><path d="M 44.265625 -65.03125 C 46.054688 -65.050781 47.742188 -64.910156 49.328125 -64.609375 L 49.484375 -50.515625 C 48.734375 -50.734375 47.910156 -50.890625 47.015625 -50.984375 C 46.117188 -51.078125 45.144531 -51.117188 44.09375 -51.109375 C 38.601562 -51.046875 34.054688 -49.304688 30.453125 -45.890625 C 26.859375 -42.484375 25.09375 -37.984375 25.15625 -32.390625 L 25.484375 -0.265625 L 10.4375 -0.109375 L 9.78125 -63.40625 L 24.828125 -63.5625 L 24.921875 -54.859375 C 27.097656 -57.941406 29.835938 -60.394531 33.140625 -62.21875 C 36.441406 -64.050781 40.148438 -64.988281 44.265625 -65.03125 Z M 44.265625 -65.03125 "/></g></g></g><g fill="#021e64" fill-opacity="1"><g transform="translate(682.200566, 114.34111)"><g><path d="M 79.578125 -11.46875 L 83.0625 -11.421875 L 82.921875 0.921875 C 81.429688 1.742188 79.738281 2.144531 77.84375 2.125 C 73.9375 2.082031 70.515625 1.070312 67.578125 -0.90625 C 64.648438 -2.894531 62.414062 -5.484375 60.875 -8.671875 C 58.195312 -5.429688 54.894531 -2.878906 50.96875 -1.015625 C 47.039062 0.835938 42.757812 1.738281 38.125 1.6875 C 32.21875 1.625 26.828125 0.0859375 21.953125 -2.921875 C 17.078125 -5.929688 13.242188 -9.929688 10.453125 -14.921875 C 7.660156 -19.910156 6.296875 -25.46875 6.359375 -31.59375 C 6.429688 -37.707031 7.921875 -43.226562 10.828125 -48.15625 C 13.734375 -53.082031 17.65625 -56.992188 22.59375 -59.890625 C 27.53125 -62.785156 32.953125 -64.203125 38.859375 -64.140625 C 42.867188 -64.097656 46.601562 -63.34375 50.0625 -61.875 C 53.53125 -60.414062 56.566406 -58.457031 59.171875 -56 L 59.25 -62.640625 L 74.28125 -62.484375 L 73.796875 -18.65625 C 73.765625 -15.90625 74.347656 -14.019531 75.546875 -13 C 76.753906 -11.988281 78.097656 -11.476562 79.578125 -11.46875 Z M 40.171875 -12.21875 C 43.648438 -12.175781 46.847656 -12.984375 49.765625 -14.640625 C 52.691406 -16.296875 55.015625 -18.5625 56.734375 -21.4375 C 58.460938 -24.320312 59.34375 -27.507812 59.375 -31 C 59.414062 -34.582031 58.601562 -37.804688 56.9375 -40.671875 C 55.28125 -43.546875 53.007812 -45.84375 50.125 -47.5625 C 47.25 -49.28125 44.070312 -50.160156 40.59375 -50.203125 C 37.113281 -50.234375 33.910156 -49.421875 30.984375 -47.765625 C 28.066406 -46.109375 25.75 -43.863281 24.03125 -41.03125 C 22.3125 -38.207031 21.429688 -35.003906 21.390625 -31.421875 C 21.359375 -27.929688 22.171875 -24.722656 23.828125 -21.796875 C 25.484375 -18.878906 27.75 -16.5625 30.625 -14.84375 C 33.507812 -13.125 36.691406 -12.25 40.171875 -12.21875 Z M 40.171875 -12.21875 "/></g></g></g><g fill="#021e64" fill-opacity="1"><g transform="translate(756.885307, 115.105568)"><g><path d="M 44.140625 -62.96875 C 48.253906 -62.8125 52.007812 -61.585938 55.40625 -59.296875 C 58.800781 -57.003906 61.507812 -54 63.53125 -50.28125 C 65.5625 -46.570312 66.488281 -42.394531 66.3125 -37.75 L 64.828125 2.40625 L 49.96875 1.859375 L 51.40625 -36.71875 C 51.53125 -40.09375 50.472656 -42.984375 48.234375 -45.390625 C 46.003906 -47.804688 43.144531 -49.078125 39.65625 -49.203125 C 36.1875 -49.335938 33.222656 -48.285156 30.765625 -46.046875 C 28.316406 -43.816406 27.03125 -41.015625 26.90625 -37.640625 L 25.46875 0.9375 L 10.4375 0.390625 L 12.78125 -62.859375 L 27.8125 -62.3125 L 27.59375 -56.296875 C 32.300781 -60.972656 37.816406 -63.195312 44.140625 -62.96875 Z M 44.140625 -62.96875 "/></g></g></g><g fill="#021e64" fill-opacity="1"><g transform="translate(820.713572, 117.374421)"><g><path d="M 72.8125 4.40625 L 53.078125 3.203125 L 28.171875 -30.796875 L 26.21875 1.578125 L 11.375 0.6875 L 18.171875 -111.78125 L 33.015625 -110.890625 L 28.515625 -36.34375 L 55.46875 -60.0625 L 74.109375 -58.9375 L 43.953125 -32.21875 Z M 72.8125 4.40625 "/></g></g></g><g fill="#021e64" fill-opacity="1"><g transform="translate(880.813883, 120.832877)"><g><path d="M 75.703125 -25.671875 L 75.3125 -23 L 23.59375 -27.375 C 23.570312 -22.082031 25.128906 -17.609375 28.265625 -13.953125 C 31.398438 -10.296875 35.59375 -8.25 40.84375 -7.8125 C 44.832031 -7.46875 48.40625 -8.171875 51.5625 -9.921875 C 54.726562 -11.671875 57.140625 -14.113281 58.796875 -17.25 L 73.78125 -15.984375 C 71.40625 -9.304688 67.164062 -4.023438 61.0625 -0.140625 C 54.96875 3.734375 47.875 5.328125 39.78125 4.640625 C 33.257812 4.085938 27.570312 2.175781 22.71875 -1.09375 C 17.863281 -4.363281 14.175781 -8.59375 11.65625 -13.78125 C 9.132812 -18.976562 8.140625 -24.734375 8.671875 -31.046875 C 9.203125 -37.347656 11.148438 -42.84375 14.515625 -47.53125 C 17.878906 -52.21875 22.226562 -55.765625 27.5625 -58.171875 C 32.894531 -60.578125 38.769531 -61.507812 45.1875 -60.96875 C 51.601562 -60.414062 57.160156 -58.535156 61.859375 -55.328125 C 66.554688 -52.128906 70.144531 -47.960938 72.625 -42.828125 C 75.101562 -37.703125 76.128906 -31.984375 75.703125 -25.671875 Z M 44.265625 -48.34375 C 40.054688 -48.695312 36.363281 -47.925781 33.1875 -46.03125 C 30.007812 -44.132812 27.535156 -41.457031 25.765625 -38 L 59.984375 -35.09375 C 58.921875 -38.894531 57.054688 -41.960938 54.390625 -44.296875 C 51.734375 -46.640625 48.359375 -47.988281 44.265625 -48.34375 Z M 44.265625 -48.34375 "/></g></g></g><g fill="#021e64" fill-opacity="1"><g transform="translate(948.979626, 126.507922)"><g><path d="M 48.578125 -59.609375 C 52.671875 -59.160156 56.328125 -57.671875 59.546875 -55.140625 C 62.773438 -52.617188 65.257812 -49.429688 67 -45.578125 C 68.75 -41.722656 69.375 -37.488281 68.875 -32.875 L 64.484375 7.078125 L 49.703125 5.453125 L 53.921875 -32.921875 C 54.285156 -36.273438 53.441406 -39.234375 51.390625 -41.796875 C 49.347656 -44.359375 46.59375 -45.832031 43.125 -46.21875 C 39.664062 -46.59375 36.628906 -45.753906 34.015625 -43.703125 C 31.398438 -41.648438 29.910156 -38.945312 29.546875 -35.59375 L 25.328125 2.78125 L 10.375 1.140625 L 17.28125 -61.78125 L 32.234375 -60.140625 L 31.578125 -54.15625 C 36.617188 -58.488281 42.285156 -60.304688 48.578125 -59.609375 Z M 48.578125 -59.609375 "/></g></g></g><g fill="#021e64" fill-opacity="1"><g transform="translate(1012.400792, 133.270612)"><g><path d="M 54.171875 -57.78125 C 60.128906 -56.976562 65.3125 -54.785156 69.71875 -51.203125 C 74.125 -47.617188 77.40625 -43.175781 79.5625 -37.875 C 81.71875 -32.582031 82.382812 -26.910156 81.5625 -20.859375 C 80.738281 -14.785156 78.578125 -9.484375 75.078125 -4.953125 C 71.585938 -0.429688 67.238281 2.960938 62.03125 5.234375 C 56.832031 7.503906 51.253906 8.238281 45.296875 7.4375 C 41.328125 6.894531 37.738281 5.6875 34.53125 3.8125 C 31.332031 1.945312 28.535156 -0.367188 26.140625 -3.140625 L 20.140625 41.078125 L 5.234375 39.046875 L 18.875 -61.3125 L 33.78125 -59.28125 L 32.875 -52.703125 C 35.925781 -54.742188 39.242188 -56.234375 42.828125 -57.171875 C 46.421875 -58.117188 50.203125 -58.320312 54.171875 -57.78125 Z M 45.28125 -6.625 C 48.84375 -6.132812 52.148438 -6.535156 55.203125 -7.828125 C 58.253906 -9.117188 60.8125 -11.085938 62.875 -13.734375 C 64.9375 -16.378906 66.203125 -19.429688 66.671875 -22.890625 C 67.148438 -26.429688 66.742188 -29.726562 65.453125 -32.78125 C 64.171875 -35.832031 62.234375 -38.382812 59.640625 -40.4375 C 57.046875 -42.488281 53.96875 -43.757812 50.40625 -44.25 C 46.957031 -44.71875 43.679688 -44.3125 40.578125 -43.03125 C 37.472656 -41.75 34.890625 -39.804688 32.828125 -37.203125 C 30.773438 -34.609375 29.507812 -31.539062 29.03125 -28 C 28.5625 -24.539062 28.96875 -21.257812 30.25 -18.15625 C 31.53125 -15.0625 33.492188 -12.484375 36.140625 -10.421875 C 38.785156 -8.359375 41.832031 -7.09375 45.28125 -6.625 Z M 45.28125 -6.625 "/></g></g></g><g fill="#021e64" fill-opacity="1"><g transform="translate(1085.494855, 143.302085)"><g><path d="M 54.046875 -55.59375 L 52.078125 -43.09375 L 36.296875 -45.5625 L 28.453125 4.46875 L 13.59375 2.140625 L 21.4375 -47.890625 L 10.984375 -49.546875 L 12.953125 -62.046875 L 23.40625 -60.390625 L 27.84375 -88.6875 C 28.445312 -92.539062 29.953125 -95.851562 32.359375 -98.625 C 34.773438 -101.394531 37.738281 -103.441406 41.25 -104.765625 C 44.769531 -106.085938 48.457031 -106.445312 52.3125 -105.84375 C 54.09375 -105.5625 55.835938 -105.097656 57.546875 -104.453125 C 59.253906 -103.816406 60.4375 -103.175781 61.09375 -102.53125 L 59.28125 -90.96875 L 51.921875 -92.125 C 49.628906 -92.476562 47.578125 -91.96875 45.765625 -90.59375 C 43.953125 -89.226562 42.832031 -87.191406 42.40625 -84.484375 L 38.265625 -58.0625 Z M 54.046875 -55.59375 "/></g></g></g><g fill="#021e64" fill-opacity="1"><g transform="translate(1120.567063, 148.772907)"><g><path d="M 10.296875 1.734375 L 29.03125 -109.359375 L 43.859375 -106.859375 L 25.125 4.234375 Z M 10.296875 1.734375 "/></g></g></g><g fill="#021e64" fill-opacity="1"><g transform="translate(1146.033755, 152.784969)"><g><path d="M 77.890625 -17.953125 L 77.234375 -15.34375 L 26.21875 -24.890625 C 25.664062 -19.617188 26.765625 -15.007812 29.515625 -11.0625 C 32.265625 -7.113281 36.226562 -4.65625 41.40625 -3.6875 C 45.351562 -2.945312 48.988281 -3.285156 52.3125 -4.703125 C 55.632812 -6.117188 58.273438 -8.3125 60.234375 -11.28125 L 75 -8.515625 C 71.976562 -2.109375 67.238281 2.71875 60.78125 5.96875 C 54.320312 9.21875 47.097656 10.097656 39.109375 8.609375 C 32.679688 7.398438 27.21875 4.925781 22.71875 1.1875 C 18.21875 -2.550781 14.96875 -7.128906 12.96875 -12.546875 C 10.976562 -17.960938 10.5625 -23.78125 11.71875 -30 C 12.882812 -36.21875 15.375 -41.492188 19.1875 -45.828125 C 23.007812 -50.160156 27.691406 -53.257812 33.234375 -55.125 C 38.785156 -56.988281 44.726562 -57.328125 51.0625 -56.140625 C 57.382812 -54.953125 62.726562 -52.523438 67.09375 -48.859375 C 71.457031 -45.203125 74.613281 -40.695312 76.5625 -35.34375 C 78.507812 -29.988281 78.953125 -24.191406 77.890625 -17.953125 Z M 48.890625 -43.65625 C 44.742188 -44.4375 40.992188 -44.039062 37.640625 -42.46875 C 34.285156 -40.894531 31.550781 -38.476562 29.4375 -35.21875 L 63.203125 -28.90625 C 62.523438 -32.789062 60.984375 -36.03125 58.578125 -38.625 C 56.171875 -41.226562 52.941406 -42.90625 48.890625 -43.65625 Z M 48.890625 -43.65625 "/></g></g></g><g fill="#021e64" fill-opacity="1"><g transform="translate(1213.234135, 165.166591)"><g><path d="M 71.3125 -49.421875 L 86.171875 -46.234375 L 72.171875 18.90625 C 70.734375 25.613281 68.015625 31.234375 64.015625 35.765625 C 60.015625 40.304688 55.148438 43.46875 49.421875 45.25 C 43.703125 47.039062 37.488281 47.21875 30.78125 45.78125 C 23.257812 44.164062 17.125 40.847656 12.375 35.828125 C 7.625 30.816406 4.734375 24.914062 3.703125 18.125 L 18.375 15.4375 C 18.789062 19.53125 20.363281 23.132812 23.09375 26.25 C 25.820312 29.375 29.347656 31.398438 33.671875 32.328125 C 39.242188 33.523438 44.269531 32.609375 48.75 29.578125 C 53.238281 26.546875 56.113281 22.09375 57.375 16.21875 L 59.671875 5.53125 C 56.441406 7.539062 52.890625 8.882812 49.015625 9.5625 C 45.140625 10.238281 41.144531 10.132812 37.03125 9.25 C 31.25 8.007812 26.269531 5.429688 22.09375 1.515625 C 17.914062 -2.398438 14.953125 -7.082031 13.203125 -12.53125 C 11.460938 -17.976562 11.238281 -23.695312 12.53125 -29.6875 C 13.8125 -35.664062 16.363281 -40.773438 20.1875 -45.015625 C 24.019531 -49.265625 28.644531 -52.316406 34.0625 -54.171875 C 39.476562 -56.035156 45.078125 -56.347656 50.859375 -55.109375 C 54.878906 -54.242188 58.507812 -52.707031 61.75 -50.5 C 64.988281 -48.289062 67.6875 -45.660156 69.84375 -42.609375 Z M 42.265625 -3.859375 C 45.765625 -3.109375 49.082031 -3.257812 52.21875 -4.3125 C 55.363281 -5.363281 58.09375 -7.125 60.40625 -9.59375 C 62.71875 -12.0625 64.242188 -15.003906 64.984375 -18.421875 C 65.734375 -21.921875 65.554688 -25.242188 64.453125 -28.390625 C 63.347656 -31.546875 61.578125 -34.25 59.140625 -36.5 C 56.710938 -38.75 53.75 -40.25 50.25 -41 C 46.84375 -41.738281 43.539062 -41.585938 40.34375 -40.546875 C 37.15625 -39.503906 34.4375 -37.765625 32.1875 -35.328125 C 29.9375 -32.898438 28.4375 -29.9375 27.6875 -26.4375 C 26.945312 -23.019531 27.097656 -19.71875 28.140625 -16.53125 C 29.179688 -13.34375 30.941406 -10.617188 33.421875 -8.359375 C 35.910156 -6.097656 38.859375 -4.597656 42.265625 -3.859375 Z M 42.265625 -3.859375 "/></g></g></g><g fill="#021e64" fill-opacity="1"><g transform="translate(1286.093702, 180.720828)"><g><path d="M 78.734375 -13.75 L 77.96875 -11.1875 L 27.53125 -23.4375 C 26.6875 -18.207031 27.53125 -13.546875 30.0625 -9.453125 C 32.601562 -5.367188 36.429688 -2.707031 41.546875 -1.46875 C 45.453125 -0.519531 49.097656 -0.664062 52.484375 -1.90625 C 55.878906 -3.144531 58.632812 -5.1875 60.75 -8.03125 L 75.34375 -4.484375 C 71.988281 1.753906 67 6.320312 60.375 9.21875 C 53.75 12.113281 46.488281 12.601562 38.59375 10.6875 C 32.238281 9.144531 26.910156 6.382812 22.609375 2.40625 C 18.316406 -1.570312 15.320312 -6.316406 13.625 -11.828125 C 11.925781 -17.347656 11.828125 -23.1875 13.328125 -29.34375 C 14.816406 -35.476562 17.582031 -40.609375 21.625 -44.734375 C 25.664062 -48.859375 30.503906 -51.695312 36.140625 -53.25 C 41.785156 -54.8125 47.738281 -54.832031 54 -53.3125 C 60.25 -51.789062 65.453125 -49.082031 69.609375 -45.1875 C 73.765625 -41.300781 76.675781 -36.632812 78.34375 -31.1875 C 80.007812 -25.738281 80.140625 -19.925781 78.734375 -13.75 Z M 51.15625 -40.984375 C 47.0625 -41.984375 43.296875 -41.785156 39.859375 -40.390625 C 36.429688 -39.003906 33.570312 -36.734375 31.28125 -33.578125 L 64.65625 -25.46875 C 64.195312 -29.382812 62.832031 -32.707031 60.5625 -35.4375 C 58.289062 -38.164062 55.15625 -40.015625 51.15625 -40.984375 Z M 51.15625 -40.984375 "/></g></g></g></g></g></svg>